<svg xmlns="http://www.w3.org/2000/svg"><symbol id="cx-activities-active" viewBox="0 0 512 512"><g id="Page-1" stroke="none" stroke-width="1" fill="none" fill-rule="evenodd"><g id="activities-active" fill="#000"><path d="M229.097 296.82h-76.825c-4.45 0-8.806-1.275-12.553-3.675-10.823-6.933-13.977-21.327-7.044-32.15l134.191-209.49a23.273 23.273 0 0 1 25.515-9.955c12.43 3.268 19.858 15.994 16.59 28.425L273.523 204.81h75.43c4.483 0 8.87 1.295 12.636 3.73 10.793 6.978 13.886 21.385 6.908 32.18L226.89 459.735a23.273 23.273 0 0 1-26.368 9.614c-12.288-3.769-19.194-16.786-15.425-29.074l44-143.455z" id="Mask"/></g></g></symbol><symbol id="cx-activities" viewBox="0 0 512 512"><g id="Page-1" stroke="none" stroke-width="1" fill="none" fill-rule="evenodd"><g id="activities" fill="#000"><path d="M286.463 64.058l-134.191 209.49h108.306L207.348 447.1l141.605-219.017H243.34l43.122-164.025zM229.097 296.82h-76.825c-4.45 0-8.806-1.276-12.553-3.676-10.823-6.933-13.977-21.327-7.044-32.15l134.191-209.49a23.273 23.273 0 0 1 25.515-9.955c12.43 3.268 19.858 15.994 16.59 28.425L273.523 204.81h75.43c4.483 0 8.87 1.295 12.636 3.73 10.793 6.978 13.886 21.385 6.908 32.18L226.89 459.735a23.273 23.273 0 0 1-26.368 9.614c-12.288-3.769-19.194-16.786-15.425-29.074l44-143.455z" id="Mask"/></g></g></symbol><symbol id="cx-agenda-active" viewBox="0 0 512 512"><g id="Page-1" stroke="none" stroke-width="1" fill="none" fill-rule="evenodd"><g id="agenda-active" fill="#000"><path d="M392.657 114.036c7.2 0 13.406 2.545 18.619 7.634 5.213 5.089 7.82 11.233 7.82 18.432V390.33c0 7.2-2.607 13.405-7.82 18.618-5.213 5.213-11.42 7.82-18.619 7.82H119.343c-7.2 0-13.343-2.607-18.432-7.82-5.09-5.213-7.634-11.419-7.634-18.618V140.102c0-7.2 2.545-13.343 7.634-18.432 5.089-5.09 11.232-7.634 18.432-7.634h43.566v-10.053c0-3.724 1.241-6.89 3.724-9.496 2.482-2.606 5.585-3.91 9.309-3.91 3.723 0 6.826 1.304 9.309 3.91 2.482 2.607 3.724 5.772 3.724 9.496v10.053h134.05v-10.053c0-3.724 1.304-6.89 3.91-9.496 2.607-2.606 5.648-3.91 9.123-3.91 3.476 0 6.517 1.304 9.123 3.91 2.607 2.607 3.91 5.772 3.91 9.496v10.053h43.566zm-273.314 26.066v40.96h273.314v-40.96h-43.566v7.447c0 3.476-1.241 6.516-3.724 9.123-2.482 2.607-5.585 3.91-9.309 3.91-3.723 0-6.826-1.303-9.309-3.91-2.482-2.607-3.724-5.647-3.724-9.123v-7.447h-134.05v7.447c0 3.476-1.304 6.516-3.91 9.123-2.607 2.607-5.648 3.91-9.123 3.91-3.476 0-6.517-1.303-9.123-3.91-2.607-2.607-3.91-5.647-3.91-9.123v-7.447h-43.566zm55.11 113.57c-3.228 0-5.958 1.118-8.193 3.352-2.234 2.234-3.35 4.965-3.35 8.192 0 3.227 1.116 5.958 3.35 8.192 2.235 2.234 4.965 3.351 8.192 3.351h23.46c3.226 0 5.957-1.117 8.191-3.351 2.234-2.234 3.352-4.965 3.352-8.192 0-3.227-1.118-5.958-3.352-8.192s-4.965-3.351-8.192-3.351h-23.459zm70.004 0c-3.227 0-5.958 1.118-8.192 3.352s-3.352 4.965-3.352 8.192c0 3.227 1.118 5.958 3.352 8.192s4.965 3.351 8.192 3.351h23.086c3.227 0 6.02-1.117 8.378-3.351 2.359-2.234 3.538-4.965 3.538-8.192 0-3.227-1.18-5.958-3.538-8.192-2.358-2.234-5.15-3.351-8.378-3.351h-23.086zm69.632 0c-3.227 0-5.958 1.118-8.192 3.352s-3.352 4.965-3.352 8.192c0 3.227 1.118 5.958 3.352 8.192s4.965 3.351 8.192 3.351h23.459c3.227 0 5.957-1.117 8.192-3.351 2.234-2.234 3.35-4.965 3.35-8.192 0-3.227-1.116-5.958-3.35-8.192-2.235-2.234-4.965-3.351-8.192-3.351h-23.46zM174.452 324.05c-3.227 0-5.957 1.18-8.192 3.538-2.234 2.358-3.35 5.15-3.35 8.378 0 3.227 1.116 5.958 3.35 8.192 2.235 2.234 4.965 3.351 8.192 3.351h23.46c3.226 0 5.957-1.117 8.191-3.35 2.234-2.235 3.352-4.966 3.352-8.193 0-3.227-1.118-6.02-3.352-8.378-2.234-2.358-4.965-3.538-8.192-3.538h-23.459zm70.005 0c-3.227 0-5.958 1.18-8.192 3.538-2.234 2.358-3.352 5.15-3.352 8.378 0 3.227 1.118 5.958 3.352 8.192s4.965 3.351 8.192 3.351h23.086c3.476 0 6.33-1.117 8.565-3.35 2.234-2.235 3.35-5.028 3.35-8.38 0-3.35-1.116-6.143-3.35-8.377-2.235-2.234-5.09-3.352-8.565-3.352h-23.086z" id="Mask"/></g></g></symbol><symbol id="cx-agenda" viewBox="0 0 512 512"><g id="Page-1" stroke="none" stroke-width="1" fill="none" fill-rule="evenodd"><g id="agenda" fill="#000"><path d="M392.657 114.036c7.2 0 13.406 2.545 18.619 7.634 5.213 5.089 7.82 11.233 7.82 18.432V390.33c0 7.2-2.607 13.405-7.82 18.618-5.213 5.213-11.42 7.82-18.619 7.82H119.343c-7.2 0-13.343-2.607-18.432-7.82-5.09-5.213-7.634-11.419-7.634-18.618V140.102c0-7.2 2.545-13.343 7.634-18.432 5.089-5.09 11.232-7.634 18.432-7.634h43.566v-10.053c0-3.724 1.241-6.89 3.724-9.496 2.482-2.606 5.585-3.91 9.309-3.91 3.723 0 6.826 1.304 9.309 3.91 2.482 2.607 3.724 5.772 3.724 9.496v10.053h134.05v-10.053c0-3.724 1.304-6.89 3.91-9.496 2.607-2.606 5.648-3.91 9.123-3.91 3.476 0 6.517 1.304 9.123 3.91 2.607 2.607 3.91 5.772 3.91 9.496v10.053h43.566zm-273.314 26.066v40.96h273.314v-40.96h-43.566v7.447c0 3.476-1.241 6.516-3.724 9.123-2.482 2.607-5.585 3.91-9.309 3.91-3.723 0-6.826-1.303-9.309-3.91-2.482-2.607-3.724-5.647-3.724-9.123v-7.447h-134.05v7.447c0 3.476-1.304 6.516-3.91 9.123-2.607 2.607-5.648 3.91-9.123 3.91-3.476 0-6.517-1.303-9.123-3.91-2.607-2.607-3.91-5.647-3.91-9.123v-7.447h-43.566zM392.657 390.33V207.127H119.343V390.33h273.314zM174.452 253.673h23.46c3.226 0 5.957 1.117 8.191 3.351 2.234 2.234 3.352 4.965 3.352 8.192 0 3.227-1.118 5.958-3.352 8.192s-4.965 3.351-8.192 3.351h-23.459c-3.227 0-5.957-1.117-8.192-3.351-2.234-2.234-3.35-4.965-3.35-8.192 0-3.227 1.116-5.958 3.35-8.192 2.235-2.234 4.965-3.351 8.192-3.351zm70.005 0h23.086c3.227 0 6.02 1.117 8.378 3.351 2.359 2.234 3.538 4.965 3.538 8.192 0 3.227-1.18 5.958-3.538 8.192-2.358 2.234-5.15 3.351-8.378 3.351h-23.086c-3.227 0-5.958-1.117-8.192-3.351s-3.352-4.965-3.352-8.192c0-3.227 1.118-5.958 3.352-8.192s4.965-3.351 8.192-3.351zm69.632 0h23.459c3.227 0 5.957 1.117 8.192 3.351 2.234 2.234 3.35 4.965 3.35 8.192 0 3.227-1.116 5.958-3.35 8.192-2.235 2.234-4.965 3.351-8.192 3.351h-23.46c-3.226 0-5.957-1.117-8.191-3.351-2.234-2.234-3.352-4.965-3.352-8.192 0-3.227 1.118-5.958 3.352-8.192s4.965-3.351 8.192-3.351zm-139.637 70.376h23.46c3.226 0 5.957 1.18 8.191 3.538 2.234 2.358 3.352 5.15 3.352 8.378 0 3.227-1.118 5.958-3.352 8.192s-4.965 3.351-8.192 3.351h-23.459c-3.227 0-5.957-1.117-8.192-3.35-2.234-2.235-3.35-4.966-3.35-8.193 0-3.227 1.116-6.02 3.35-8.378 2.235-2.358 4.965-3.538 8.192-3.538zm70.005 0h23.086c3.476 0 6.33 1.118 8.565 3.352 2.234 2.234 3.35 5.027 3.35 8.378s-1.116 6.144-3.35 8.378c-2.235 2.234-5.09 3.351-8.565 3.351h-23.086c-3.227 0-5.958-1.117-8.192-3.35-2.234-2.235-3.352-4.966-3.352-8.193 0-3.227 1.118-6.02 3.352-8.378 2.234-2.358 4.965-3.538 8.192-3.538z" id="Mask"/></g></g></symbol><symbol id="cx-candidates-active" viewBox="0 0 512 512"><g id="Page-1" stroke="none" stroke-width="1" fill="none" fill-rule="evenodd"><g id="candidates-active" fill="#000"><path d="M207.425 234.11c13.383 11.374 30.719 18.236 49.657 18.236 18.693 0 35.825-6.685 49.134-17.796l28.64 7.676c15.26 4.09 25.871 17.92 25.871 33.719V384c0 19.28-15.63 34.91-34.909 34.91H186.182c-19.28 0-34.91-15.63-34.91-34.91V275.945c0-15.8 10.612-29.629 25.872-33.719l30.281-8.116zm250.497 9.383l4.047.971c15.694 3.769 26.758 17.805 26.758 33.944v47.41c0 19.28-15.63 34.91-34.909 34.91h-81.454v-84.783a46.493 46.493 0 0 0-11.41-30.53 35.105 35.105 0 0 1 3.259-.95l4.047-.972c11.546 11.334 27.372 18.325 44.83 18.325 17.46 0 33.286-6.99 44.832-18.325zm-309.097.708c.875.239 1.734.51 2.577.81a46.496 46.496 0 0 0-11.766 30.934v84.782H69.818c-19.28 0-34.909-15.63-34.909-34.909V277.88c0-15.756 10.552-29.541 25.72-33.678 11.48 10.917 27.006 17.617 44.098 17.617s32.62-6.7 44.098-17.617zm-44.098 5.98c-28.92 0-52.363-23.443-52.363-52.363 0-28.92 23.444-52.363 52.363-52.363 28.92 0 52.364 23.444 52.364 52.363 0 28.92-23.444 52.364-52.364 52.364zm308.364 0c-28.92 0-52.364-23.443-52.364-52.363 0-28.92 23.444-52.363 52.364-52.363 28.92 0 52.364 23.444 52.364 52.363 0 28.92-23.444 52.364-52.364 52.364zm-156.009-9.471c-35.944 0-65.082-29.138-65.082-65.082 0-35.944 29.138-65.083 65.082-65.083 35.944 0 65.082 29.139 65.082 65.083s-29.138 65.082-65.082 65.082z" id="Mask"/></g></g></symbol><symbol id="cx-candidates" viewBox="0 0 512 512"><g id="Page-1" stroke="none" stroke-width="1" fill="none" fill-rule="evenodd"><g id="candidates" fill="#000"><path d="M66.889 266.618a11.636 11.636 0 0 0-8.707 11.261v47.94c0 6.426 5.21 11.636 11.636 11.636h69.818c6.427 0 11.637-5.21 11.637-11.637V277.88c0-5.298-3.58-9.927-8.707-11.261l-34.91-9.081c-1.92-.5-3.937-.5-5.858 0l-34.91 9.08zm138.788-43.676c-12.073-12.55-19.495-29.607-19.495-48.397 0-38.56 31.258-69.818 69.818-69.818s69.818 31.259 69.818 69.818c0 18.79-7.422 35.847-19.495 48.397l28.533 7.648a34.889 34.889 0 0 1 21.496 16.794 34.914 34.914 0 0 1 7.86-2.92l10.856-2.606c-12.346-10.67-20.159-26.442-20.159-44.04 0-32.133 26.049-58.182 58.182-58.182s58.182 26.05 58.182 58.182c0 17.598-7.813 33.37-20.159 44.04l10.855 2.606c15.694 3.769 26.758 17.805 26.758 33.944v47.41c0 19.28-15.63 34.91-34.909 34.91h-81.454c-4.08 0-7.997-.7-11.637-1.987v13.623c0 19.28-15.63 34.909-34.909 34.909H186.182c-19.28 0-34.91-15.63-34.91-34.91v-13.622a34.853 34.853 0 0 1-11.636 1.986H69.818c-19.28 0-34.909-15.63-34.909-34.909V277.88c0-15.894 10.738-29.783 26.12-33.784l6.36-1.655c-12.741-10.672-20.844-26.7-20.844-44.622 0-32.133 26.05-58.182 58.182-58.182 32.133 0 58.182 26.05 58.182 58.182 0 17.921-8.102 33.95-20.844 44.622l6.36 1.655a34.92 34.92 0 0 1 7.454 2.88 34.886 34.886 0 0 1 21.265-16.385l28.533-7.648zm26.09 17.102l-48.598 13.025a11.636 11.636 0 0 0-8.624 11.24v108.055c0 6.426 5.21 11.636 11.637 11.636h139.636c6.427 0 11.637-5.21 11.637-11.636V264.309c0-5.267-3.537-9.877-8.624-11.24l-48.598-13.025a69.675 69.675 0 0 1-24.233 4.32 69.675 69.675 0 0 1-24.233-4.32zm128.96 85.774c0 6.427 5.21 11.637 11.637 11.637h81.454c6.427 0 11.637-5.21 11.637-11.637v-47.41c0-5.38-3.689-10.058-8.92-11.314l-40.727-9.78a11.636 11.636 0 0 0-5.434 0l-40.727 9.78a11.636 11.636 0 0 0-8.92 11.314v47.41zm-256-93.09c19.28 0 34.91-15.63 34.91-34.91 0-19.28-15.63-34.909-34.91-34.909-19.28 0-34.909 15.63-34.909 34.91 0 19.279 15.63 34.908 34.91 34.908zm308.364 0c19.28 0 34.909-15.63 34.909-34.91 0-19.28-15.63-34.909-34.91-34.909-19.279 0-34.908 15.63-34.908 34.91 0 19.279 15.63 34.908 34.909 34.908zM256 221.09c25.706 0 46.545-20.84 46.545-46.546S281.706 128 256 128c-25.706 0-46.545 20.84-46.545 46.545 0 25.707 20.839 46.546 46.545 46.546z" id="Mask"/></g></g></symbol><symbol id="cx-companies-active" viewBox="0 0 512 512"><g id="Page-1" stroke="none" stroke-width="1" fill="none" fill-rule="evenodd"><g id="companies-active" fill="#000"><path d="M349.556 202.294h40.495c22.364 0 40.494 18.034 40.494 40.28v134.265c0 22.246-18.13 40.28-40.494 40.28h-44.106a26.62 26.62 0 0 0 3.611-13.427V202.294zM363.055 256v40.28h26.996V256h-26.996zm0 67.133v40.28h26.996v-40.28h-26.996zM133.585 81.455h161.979c22.364 0 40.494 18.033 40.494 40.28v268.53c0 22.247-18.13 40.28-40.494 40.28H133.585c-22.364 0-40.494-18.033-40.494-40.28v-268.53c0-22.247 18.13-40.28 40.494-40.28zm13.499 53.706v40.28h26.996v-40.28h-26.996zm0 67.133v40.28h26.996v-40.28h-26.996zm0 67.133v40.28h26.996v-40.28h-26.996zm53.992 0v40.28h26.997v-40.28h-26.997zm53.993 0v40.28h26.996v-40.28H255.07zm-107.985 67.132v40.28h26.996v-40.28h-26.996zm53.992 0v40.28h26.997v-40.28h-26.997zm0-201.398v40.28h26.997v-40.28h-26.997zm0 67.133v40.28h26.997v-40.28h-26.997zm53.993-67.133v40.28h26.996v-40.28H255.07zm0 67.133v40.28h26.996v-40.28H255.07zm0 134.265v40.28h26.996v-40.28H255.07z" id="Mask"/></g></g></symbol><symbol id="cx-companies" viewBox="0 0 512 512"><g id="Page-1" stroke="none" stroke-width="1" fill="none" fill-rule="evenodd"><g id="companies" fill="#000"><path d="M349.556 202.294h40.495c22.364 0 40.494 18.034 40.494 40.28v134.265c0 22.246-18.13 40.28-40.494 40.28h-44.106a26.62 26.62 0 0 0 3.611-13.427v-13.426h40.495c7.455 0 13.498-6.012 13.498-13.427V242.573c0-7.415-6.043-13.426-13.498-13.426h-40.495v-26.853zM351.418 256h26.997v40.28h-26.997V256zm0 67.133h26.997v40.28h-26.997v-40.28zM133.585 81.455h161.979c22.364 0 40.494 18.033 40.494 40.28v268.53c0 22.247-18.13 40.28-40.494 40.28H133.585c-22.364 0-40.494-18.033-40.494-40.28v-268.53c0-22.247 18.13-40.28 40.494-40.28zm0 26.853c-7.454 0-13.498 6.011-13.498 13.426v268.532c0 7.415 6.044 13.426 13.498 13.426h161.979c7.454 0 13.498-6.011 13.498-13.426V121.734c0-7.415-6.044-13.426-13.498-13.426H133.585zm13.499 26.853h26.996v40.28h-26.996v-40.28zm0 67.133h26.996v40.28h-26.996v-40.28zm0 67.133h26.996v40.28h-26.996v-40.28zm53.992 0h26.997v40.28h-26.997v-40.28zm53.993 0h26.996v40.28H255.07v-40.28zm-107.985 67.132h26.996v40.28h-26.996v-40.28zm53.992 0h26.997v40.28h-26.997v-40.28zm0-201.398h26.997v40.28h-26.997v-40.28zm0 67.133h26.997v40.28h-26.997v-40.28zm53.993-67.133h26.996v40.28H255.07v-40.28zm0 67.133h26.996v40.28H255.07v-40.28zm0 134.265h26.996v40.28H255.07v-40.28z" id="Mask"/></g></g></symbol><symbol id="cx-contacts-active" viewBox="0 0 512 512"><g id="Page-1" stroke="none" stroke-width="1" fill="none" fill-rule="evenodd"><g id="contacts-active" fill="#000"><path d="M197.818 331.636c-41.773 0-75.636-33.863-75.636-75.636 0-41.773 33.863-75.636 75.636-75.636 41.773 0 75.637 33.863 75.637 75.636 0 41.773-33.864 75.636-75.637 75.636zm-29.863 6.394l19.361 34.827c3.123 5.617 10.207 7.639 15.824 4.516a11.636 11.636 0 0 0 4.847-5.155l15.684-32.838c17.729-5.49 33.04-16.48 43.942-30.976 13.844 4.874 23.296 18.006 23.296 32.922v77.583c0 19.28-15.63 34.91-34.909 34.91H139.636c-19.28 0-34.909-15.63-34.909-34.91v-77.583c0-14.916 9.453-28.048 23.297-32.922 10.07 13.39 23.904 23.79 39.931 29.626zm29.863-169.303v-64c0-19.28 15.63-34.909 34.91-34.909h139.636c19.28 0 34.909 15.63 34.909 34.91v232.727c0 19.28-15.63 34.909-34.91 34.909h-69.818v-31.038c0-5.403-.93-10.63-2.654-15.508h14.29V290.91H290.91v19.63a46.462 46.462 0 0 0-16.813-12.1C281.1 285.876 285.09 271.404 285.09 256c0-19.65-6.495-37.785-17.455-52.372v-29.083h-23.272v7.617c-13.472-8.51-29.434-13.435-46.546-13.435zm46.546-52.363v34.909h23.272v-34.91h-23.272zm46.545 0v34.909h23.273v-34.91h-23.273zm0 58.181v34.91h23.273v-34.91h-23.273zm0 58.182v34.91h23.273v-34.91h-23.273zm46.546-116.363v34.909h23.272v-34.91h-23.272zm0 58.181v34.91h23.272v-34.91h-23.272zm0 58.182v34.91h23.272v-34.91h-23.272zm0 58.182v34.91h23.272v-34.91h-23.272z" id="Mask"/></g></g></symbol><symbol id="cx-contacts" viewBox="0 0 512 512"><g id="Page-1" stroke="none" stroke-width="1" fill="none" fill-rule="evenodd"><g id="contacts" fill="#000"><path d="M174.564 309.348a57.986 57.986 0 0 0 23.254 4.834 58.027 58.027 0 0 0 21.455-4.084C240.788 301.558 256 280.556 256 256c0-32.133-26.049-58.182-58.182-58.182s-58.182 26.05-58.182 58.182c0 23.865 14.37 44.375 34.928 53.348zm-11.395 14.145l-26.337 6.54A11.636 11.636 0 0 0 128 341.325v77.583c0 6.427 5.21 11.636 11.636 11.636H256c6.427 0 11.636-5.21 11.636-11.636v-77.583a11.636 11.636 0 0 0-8.832-11.294l-30.346-7.535a11.633 11.633 0 0 1-.673 8.268l-19.798 41.453a11.636 11.636 0 0 1-4.847 5.155c-5.617 3.123-12.701 1.1-15.824-4.516l-22.94-41.267a11.625 11.625 0 0 1-1.207-8.097zm34.65-148.948v-69.818c0-19.28 15.629-34.909 34.908-34.909h139.637c19.28 0 34.909 15.63 34.909 34.91v232.727c0 19.28-15.63 34.909-34.91 34.909H290.91v46.545c0 19.28-15.63 34.91-34.909 34.91H139.636c-19.28 0-34.909-15.63-34.909-34.91v-77.583c0-16.04 10.93-30.015 26.496-33.88l2.866-.712c-11.095-13.918-17.725-31.552-17.725-50.734 0-44.986 36.468-81.455 81.454-81.455zm23.272 3.374a81.124 81.124 0 0 1 23.273 11.226v-14.6h23.272v34.91h-2.963c9.203 13.193 14.6 29.239 14.6 46.545 0 19.182-6.631 36.816-17.726 50.734l2.866.712c15.567 3.865 26.496 17.84 26.496 33.88v7.765h81.455c6.426 0 11.636-5.21 11.636-11.636V104.727c0-6.426-5.21-11.636-11.636-11.636H232.727c-6.426 0-11.636 5.21-11.636 11.636v73.192zm23.273-61.555h23.272v34.909h-23.272v-34.91zm46.545 0h23.273v34.909h-23.273v-34.91zm0 58.181h23.273v34.91h-23.273v-34.91zm0 58.182h23.273v34.91h-23.273v-34.91zm0 58.182h23.273v34.91h-23.273v-34.91zm46.546-174.545h23.272v34.909h-23.272v-34.91zm0 58.181h23.272v34.91h-23.272v-34.91zm0 58.182h23.272v34.91h-23.272v-34.91zm0 58.182h23.272v34.91h-23.272v-34.91z" id="Mask"/></g></g></symbol><symbol id="cx-dashboard-active" viewBox="0 0 512 512"><g id="Page-1" stroke="none" stroke-width="1" fill="none" fill-rule="evenodd"><g id="dashboard-active" fill="#000"><path d="M133.818 93.09h108.606v122.183H93.091v-81.455c0-22.493 18.234-40.727 40.727-40.727zm135.758 203.637h149.333v81.455c0 22.493-18.234 40.727-40.727 40.727H269.576V296.727zM93.09 242.424h149.333V418.91H133.818c-22.493 0-40.727-18.234-40.727-40.727V242.424zM269.576 93.091h108.606c22.493 0 40.727 18.234 40.727 40.727v135.758H269.576V93.09z" id="Mask"/></g></g></symbol><symbol id="cx-dashboard" viewBox="0 0 512 512"><g id="Page-1" stroke="none" stroke-width="1" fill="none" fill-rule="evenodd"><g id="dashboard" fill="#000"><path d="M269.576 93.09h108.606c22.493 0 40.727 18.235 40.727 40.728v244.364c0 22.493-18.234 40.727-40.727 40.727H133.818c-22.493 0-40.727-18.234-40.727-40.727V133.818c0-22.493 18.234-40.727 40.727-40.727h135.758zM120.242 215.274h122.182v-95.03H133.818c-7.498 0-13.576 6.077-13.576 13.575v81.455zm149.334 81.454v95.03h108.606c7.498 0 13.576-6.077 13.576-13.575v-81.455H269.576zm-149.334-54.303v135.758c0 7.498 6.078 13.576 13.576 13.576h108.606V242.424H120.242zm149.334-122.182v149.334h122.182V133.818c0-7.498-6.078-13.576-13.576-13.576H269.576z" id="Mask"/></g></g></symbol><symbol id="cx-documents" viewBox="0 0 512 512"><g id="Page-1" stroke="none" stroke-width="1" fill="none" fill-rule="evenodd"><g id="documents" fill="#000"><path d="M158.109 227.55l92.624-92.463a15.196 15.196 0 0 1 4.785-3.712l2.393-1.35c2.962-1.35 6.266-2.025 9.912-2.025h115.183c6.608 0 12.304 2.306 17.09 6.918 4.784 4.612 7.177 10.18 7.177 16.704v290.21c0 6.525-2.393 12.093-7.178 16.705-4.785 4.612-10.481 6.918-17.09 6.918H174.857c-6.608 0-12.19-2.306-16.747-6.918-4.558-4.612-6.836-10.18-6.836-16.704V244.084c0-6.524 2.278-12.035 6.836-16.535zm97.41-63.105l-66.991 66.479h66.99v-66.479zm-80.321 277.388h208.15V151.622H279.443v79.302c0 6.524-2.393 12.092-7.178 16.704s-10.481 6.917-17.09 6.917h-79.978v187.288zm150.62-327.797h-23.925V70.167H197.989v79.302c0 6.524-2.392 12.092-7.177 16.704-4.786 4.612-10.482 6.918-17.09 6.918H93.743v187.287h44.877V384H93.402c-6.608 0-12.19-2.306-16.748-6.918-4.557-4.612-6.836-10.18-6.836-16.704V162.63c0-6.524 2.279-12.036 6.836-16.535l92.625-92.463a15.196 15.196 0 0 1 4.785-3.712l2.392-1.35c2.963-1.35 6.266-2.025 9.912-2.025h115.183c6.608 0 12.305 2.306 17.09 6.918s7.177 10.18 7.177 16.704v43.87zM174.064 82.991l-66.99 66.478h66.99V82.991z" id="Mask"/></g></g></symbol><symbol id="cx-email-work" viewBox="0 0 512 512"><g id="Page-1" stroke="none" stroke-width="1" fill="none" fill-rule="evenodd"><g id="email-work" fill="#000"><path d="M478.72 280.22h-35.84V114.688L335.339 204.8H278.91L404.48 99.84H105.472l137.216 113.664c3.755 3.755 8.192 5.632 13.312 5.632v35.84c-7.168 0-14.08-1.365-20.736-4.096-6.656-2.73-12.544-6.656-17.664-11.776L66.56 114.688v297.984H179.2v36.352H66.56c-9.899 0-18.432-3.584-25.6-10.752-7.168-7.168-10.752-15.701-10.752-25.6V99.84c0-9.899 3.584-18.347 10.752-25.344C48.128 67.499 56.661 64 66.56 64h376.32c9.899 0 18.347 3.499 25.344 10.496S478.72 89.941 478.72 99.84v180.38zM255.865 503.795c-28.203 0-51.065-22.862-51.065-51.064v-94.44c0-28.202 22.862-51.064 51.065-51.064h16.885v-25.762c0-28.203 22.863-51.065 51.065-51.065h41.92c28.203 0 51.065 22.862 51.065 51.065v25.762h26.49c28.201 0 51.064 22.862 51.064 51.064v94.729c0 28.202-22.863 51.064-51.065 51.064l-187.424-.289zm126.892-196.568v-25.762c0-9.401-7.62-17.022-17.021-17.022h-41.921c-9.4 0-17.022 7.62-17.022 17.022v25.762h75.964z" id="Mask"/></g></g></symbol><symbol id="cx-filetag-cv" viewBox="0 0 512 512"><g id="Page-1" stroke="none" stroke-width="1" fill="none" fill-rule="evenodd"><g id="filetag-cv" fill="#000"><path d="M384 358.4c71.68 0 128 56.32 128 128V512H256v-25.6c0-71.68 56.32-128 128-128zm76.8-76.8c0 43.52-33.28 76.8-76.8 76.8-43.52 0-76.8-33.28-76.8-76.8 0-43.52 33.28-76.8 76.8-76.8 43.52 0 76.8 33.28 76.8 76.8zM51.2 179.2v230.4h179.2v51.2H0V143.36L143.36 0H384v153.6h-51.2V51.2H179.2v128h-128zm261.12 281.6h143.36c-10.24-30.72-38.4-51.2-71.68-51.2-33.28 0-61.44 20.48-71.68 51.2zM384 307.2c15.36 0 25.6-10.24 25.6-25.6 0-15.36-10.24-25.6-25.6-25.6-15.36 0-25.6 10.24-25.6 25.6 0 15.36 10.24 25.6 25.6 25.6zM128 87.04L87.04 128H128V87.04z" id="Mask"/></g></g></symbol><symbol id="cx-filetag-generic" viewBox="0 0 512 512"><g id="Page-1" stroke="none" stroke-width="1" fill="none" fill-rule="evenodd"><g id="filetag-generic" fill="#000"><path d="M317.44 0H25.6v512h460.8V168.96L317.44 0zM76.8 460.8V51.2h204.8v153.6h153.6v256H76.8zm256-373.76l66.56 66.56H332.8V87.04zM128 256h256v51.2H128V256zm0 102.4h256v51.2H128v-51.2zm0-204.8h102.4v51.2H128v-51.2z" id="Mask"/></g></g></symbol><symbol id="cx-filetag-legal" viewBox="0 0 512 512"><g id="Page-1" stroke="none" stroke-width="1" fill="none" fill-rule="evenodd"><g id="filetag-legal" fill="#000"><path d="M51.2 179.2h128v-128h153.6V128H384V0H143.36L0 143.36V460.8h230.4v-51.2H51.2V179.2zM128 87.04V128H87.04L128 87.04zm153.6 235.52C266.24 304.64 256 281.6 256 256c0-56.32 46.08-102.4 102.4-102.4 56.32 0 102.4 46.08 102.4 102.4 0 25.6-10.24 48.64-25.6 66.56V512l-76.8-76.8-76.8 76.8V322.56zM384 389.12v-33.28c-7.68 0-17.92 2.56-25.6 2.56s-17.92 0-25.6-2.56v33.28l25.6-25.6 25.6 25.6zm-25.6-81.92c28.16 0 51.2-23.04 51.2-51.2 0-28.16-23.04-51.2-51.2-51.2-28.16 0-51.2 23.04-51.2 51.2 0 28.16 23.04 51.2 51.2 51.2z" id="Mask"/></g></g></symbol><symbol id="cx-filetag-picture" viewBox="0 0 512 512"><g id="Page-1" stroke="none" stroke-width="1" fill="none" fill-rule="evenodd"><g id="filetag-picture" fill="#000"><path d="M0 0v512h512V0H0zm460.8 51.2v271.36l-51.2-51.2-102.4 102.4L128 194.56l-76.8 76.8V51.2h409.6zM51.2 343.04l76.8-76.8L322.56 460.8H51.2V343.04zM394.24 460.8l-51.2-51.2 66.56-66.56 51.2 51.2v66.56h-66.56zM320 179.2c-21.208 0-38.4-17.192-38.4-38.4s17.192-38.4 38.4-38.4 38.4 17.192 38.4 38.4-17.192 38.4-38.4 38.4z" id="Mask"/></g></g></symbol><symbol id="cx-filetag-portrait" viewBox="0 0 512 512"><g id="Page-1" stroke="none" stroke-width="1" fill="none" fill-rule="evenodd"><g id="filetag-portrait" fill="#000"><path d="M0 0h512v512H0V0zm445.913 460.8H460.8V51.2H51.2v409.6h14.887c30.381-75.055 103.964-128 189.913-128 85.949 0 159.532 52.945 189.913 128zm-51.81 0c-26.56-45.911-76.198-76.8-133.052-76.8S154.558 414.889 128 460.8h266.102zM256 307.2c-56.554 0-102.4-45.846-102.4-102.4 0-56.554 45.846-102.4 102.4-102.4 56.554 0 102.4 45.846 102.4 102.4 0 56.554-45.846 102.4-102.4 102.4zm0-51.2c28.277 0 51.2-22.923 51.2-51.2 0-28.277-22.923-51.2-51.2-51.2-28.277 0-51.2 22.923-51.2 51.2 0 28.277 22.923 51.2 51.2 51.2z" id="Mask"/></g></g></symbol><symbol id="cx-filetag-video" viewBox="0 0 512 512"><g id="Page-1" stroke="none" stroke-width="1" fill="none" fill-rule="evenodd"><g id="filetag-video" fill="#000"><path d="M0 0h512v512H0V0zm51.2 460.8h409.6V179.2H51.2v281.6zM99.84 128h81.92l76.8-76.8h-81.92L99.84 128zm230.4-76.8l-76.8 76.8h81.92l76.8-76.8h-81.92zM460.8 74.24L407.04 128h53.76V74.24zM104.96 51.2H51.2v53.76l53.76-53.76zM204.8 384V256l102.4 64-102.4 64z" id="Mask"/></g></g></symbol><symbol id="cx-inbox-active" viewBox="0 0 512 512"><g id="Page-1" stroke="none" stroke-width="1" fill="none" fill-rule="evenodd"><g id="inbox-active" fill="#000"><path d="M69.818 267.636l58.115-145.286a46.545 46.545 0 0 1 43.216-29.26h181.338a46.545 46.545 0 0 1 43.217 29.26l58.114 145.286V384c0 19.28-15.63 34.91-34.909 34.91H104.727c-19.28 0-34.909-15.63-34.909-34.91V267.636zm25.066 0h105.343c7.598 26.863 32.296 46.546 61.591 46.546s53.993-19.683 61.591-46.546h105.344l-54.658-136.643a23.273 23.273 0 0 0-21.608-14.63H171.15a23.273 23.273 0 0 0-21.608 14.63L94.884 267.636zm102.934-58.181h128c6.427 0 11.637 5.21 11.637 11.636 0 6.426-5.21 11.636-11.637 11.636h-128c-6.426 0-11.636-5.21-11.636-11.636 0-6.427 5.21-11.636 11.636-11.636zm23.273-58.182h81.454c6.427 0 11.637 5.21 11.637 11.636 0 6.427-5.21 11.636-11.637 11.636h-81.454c-6.427 0-11.636-5.21-11.636-11.636 0-6.426 5.21-11.636 11.636-11.636z" id="Mask"/></g></g></symbol><symbol id="cx-inbox" viewBox="0 0 512 512"><g id="Page-1" stroke="none" stroke-width="1" fill="none" fill-rule="evenodd"><g id="inbox" fill="#000"><path d="M69.818 267.636l58.115-145.286a46.545 46.545 0 0 1 43.216-29.26h181.338a46.545 46.545 0 0 1 43.217 29.26l58.114 145.286V384c0 19.28-15.63 34.91-34.909 34.91H104.727c-19.28 0-34.909-15.63-34.909-34.91V267.636zm25.066 0h105.343c7.598 26.863 32.296 46.546 61.591 46.546s53.993-19.683 61.591-46.546h105.344l-54.658-136.643a23.273 23.273 0 0 0-21.608-14.63H171.15a23.273 23.273 0 0 0-21.608 14.63L94.884 267.636zM93.09 290.91V384c0 6.427 5.21 11.636 11.636 11.636H418.91c6.427 0 11.636-5.21 11.636-11.636v-93.09H339.03c-14.796 28.038-44.179 46.545-77.21 46.545-33.033 0-62.416-18.507-77.211-46.546H93.09zm104.727-81.454h128c6.427 0 11.637 5.21 11.637 11.636 0 6.426-5.21 11.636-11.637 11.636h-128c-6.426 0-11.636-5.21-11.636-11.636 0-6.427 5.21-11.636 11.636-11.636zm23.273-58.182h81.454c6.427 0 11.637 5.21 11.637 11.636 0 6.427-5.21 11.636-11.637 11.636h-81.454c-6.427 0-11.636-5.21-11.636-11.636 0-6.426 5.21-11.636 11.636-11.636z" id="Mask"/></g></g></symbol><symbol id="cx-job-order-add" viewBox="0 0 512 512"><g id="Page-1" stroke="none" stroke-width="1" fill="none" fill-rule="evenodd"><g id="job-order-add" fill="#000"><path d="M486.4 256h-51.2v-51.2c0-14.138-11.462-25.6-25.6-25.6H102.4c-14.138 0-25.6 11.462-25.6 25.6v204.8c0 14.138 11.462 25.6 25.6 25.6H256v51.2H102.4c-42.415 0-76.8-34.385-76.8-76.8V204.8c0-42.415 34.385-76.8 76.8-76.8h51.2v-25.6c0-42.415 34.385-76.8 76.8-76.8h51.577c42.416 0 76.8 34.385 76.8 76.8V128H409.6c42.415 0 76.8 34.385 76.8 76.8V256zM204.8 128h102.777v-25.6c0-14.138-11.461-25.6-25.6-25.6H230.4c-14.138 0-25.6 11.462-25.6 25.6V128zm282.624 249.856c4.779 0 8.96 1.707 12.544 5.12 3.584 3.413 5.376 7.68 5.376 12.8 0 5.12-1.792 9.387-5.376 12.8-3.584 3.413-7.765 5.12-12.544 5.12H409.6v74.24c0 4.779-1.877 8.96-5.632 12.544-3.755 3.584-8.021 5.376-12.8 5.376s-8.96-1.792-12.544-5.376c-3.584-3.584-5.376-7.765-5.376-12.544v-74.24H299.52c-5.12 0-9.387-1.792-12.8-5.376-3.413-3.584-5.12-7.765-5.12-12.544 0-4.779 1.707-8.96 5.12-12.544 3.413-3.584 7.68-5.376 12.8-5.376h73.728v-77.824c0-5.12 1.707-9.472 5.12-13.056 3.413-3.584 7.68-5.376 12.8-5.376 5.12 0 9.472 1.792 13.056 5.376 3.584 3.584 5.376 7.936 5.376 13.056v77.824h77.824z" id="Mask"/></g></g></symbol><symbol id="cx-job-orders-active" viewBox="0 0 512 512"><g id="Page-1" stroke="none" stroke-width="1" fill="none" fill-rule="evenodd"><g id="job-orders-active" fill="#000"><path d="M229.778 180.52h-23.273v-5.975c0-6.426-5.21-11.636-11.636-11.636H126.82c-6.426 0-11.636 5.21-11.636 11.636v5.976H91.91v-5.976c0-19.28 15.63-34.909 34.91-34.909h68.048c19.28 0 34.909 15.63 34.909 34.91v5.975zm103.547 125.05v-78.504c0-25.706-20.84-46.545-46.545-46.545h-22.683v-10.733c0-19.28 15.63-34.909 34.909-34.909h30.741v-17.612c0-19.28 15.63-34.909 34.91-34.909h28.658c19.28 0 34.909 15.63 34.909 34.91v17.611h37.306c19.28 0 34.91 15.63 34.91 34.91v100.873c0 19.28-15.63 34.909-34.91 34.909H333.325zM353.02 134.88h51.93v-17.612c0-6.426-5.209-11.636-11.635-11.636h-28.658c-6.427 0-11.637 5.21-11.637 11.636v17.612zM34.91 192.157h251.87c19.28 0 34.909 15.63 34.909 34.909v159.96c0 19.28-15.63 34.909-34.91 34.909H34.91C15.63 421.935 0 406.305 0 387.025V227.066c0-19.28 15.63-34.909 34.91-34.909z" id="Mask"/></g></g></symbol><symbol id="cx-job-orders" viewBox="0 0 512 512"><g id="Page-1" stroke="none" stroke-width="1" fill="none" fill-rule="evenodd"><g id="job-orders" fill="#000"><path d="M229.778 192.157h57.002c19.28 0 34.909 15.63 34.909 34.909v159.96c0 19.28-15.63 34.909-34.91 34.909H34.91C15.63 421.935 0 406.305 0 387.025V227.066c0-19.28 15.63-34.909 34.91-34.909H91.91v-17.612c0-19.28 15.63-34.909 34.91-34.909h68.048c19.28 0 34.909 15.63 34.909 34.91v17.611zM34.909 215.43c-6.426 0-11.636 5.21-11.636 11.636v159.96c0 6.426 5.21 11.636 11.636 11.636h251.87c6.427 0 11.637-5.21 11.637-11.637V227.066c0-6.427-5.21-11.636-11.636-11.636H34.91zm80.275-23.273h91.32v-17.612c0-6.426-5.209-11.636-11.635-11.636H126.82c-6.426 0-11.636 5.21-11.636 11.636v17.612zm206.505 113.414v-23.273H465.53c6.427 0 11.637-5.21 11.637-11.636V169.788c0-6.427-5.21-11.636-11.637-11.636H299.006c-6.427 0-11.637 5.21-11.637 11.636v22.374a35.607 35.607 0 0 0-.59-.005h-22.682v-22.369c0-19.28 15.63-34.909 34.909-34.909h30.741v-17.612c0-19.28 15.63-34.909 34.91-34.909h28.658c19.28 0 34.909 15.63 34.909 34.91v17.611h37.306c19.28 0 34.91 15.63 34.91 34.91v100.873c0 19.28-15.63 34.909-34.91 34.909H321.69zm31.331-170.692h51.93v-17.612c0-6.426-5.209-11.636-11.635-11.636h-28.658c-6.427 0-11.637 5.21-11.637 11.636v17.612z" id="Mask"/></g></g></symbol><symbol id="cx-link" viewBox="0 0 512 512"><g id="Page-1" stroke="none" stroke-width="1" fill="none" fill-rule="evenodd"><g id="link" fill="#000"><path d="M270.848 332.8c3.755-3.755 8.107-5.632 13.056-5.632 4.95 0 9.216 1.792 12.8 5.376 3.584 3.584 5.376 7.85 5.376 12.8 0 4.95-1.877 9.301-5.632 13.056l-89.6 89.6c-9.899 9.557-20.992 16.896-33.28 22.016-12.288 5.12-25.088 7.68-38.4 7.68-13.312 0-26.197-2.56-38.656-7.68-12.459-5.12-23.467-12.459-33.024-22.016-9.557-9.557-16.896-20.565-22.016-33.024-5.12-12.459-7.68-25.515-7.68-39.168 0-13.653 2.56-26.624 7.68-38.912 5.12-12.288 12.459-23.21 22.016-32.768l89.088-89.6c3.755-3.413 8.107-5.12 13.056-5.12 4.95 0 9.216 1.707 12.8 5.12 3.584 3.413 5.376 7.595 5.376 12.544 0 4.95-1.877 9.301-5.632 13.056l-89.6 89.6c-6.144 6.144-10.837 13.141-14.08 20.992-3.243 7.85-4.864 16.213-4.864 25.088s1.707 17.323 5.12 25.344c3.413 8.021 8.192 15.104 14.336 21.248 6.144 6.144 13.141 10.837 20.992 14.08 7.85 3.243 16.213 4.864 25.088 4.864s17.237-1.621 25.088-4.864c7.85-3.243 14.848-7.936 20.992-14.08l89.6-89.6zM449.536 61.44c12.97 12.97 21.76 28.16 26.368 45.568 4.608 17.408 4.608 34.816 0 52.224-4.608 17.408-13.397 32.597-26.368 45.568l-89.088 89.6c-3.413 3.413-7.68 5.12-12.8 5.12-5.12 0-9.387-1.792-12.8-5.376-3.413-3.584-5.12-7.85-5.12-12.8 0-4.95 1.707-9.13 5.12-12.544l89.6-89.6c6.144-6.144 10.837-13.141 14.08-20.992 3.243-7.85 4.864-16.213 4.864-25.088s-1.621-17.237-4.864-25.088c-3.243-7.85-7.936-14.848-14.08-20.992-8.533-8.533-18.432-14.25-29.696-17.152-11.264-2.901-22.443-2.901-33.536 0s-20.907 8.619-29.44 17.152l-89.6 89.088c-3.413 3.413-7.595 5.12-12.544 5.12-4.95 0-9.216-1.707-12.8-5.12-3.584-3.413-5.376-7.595-5.376-12.544 0-4.95 1.707-9.13 5.12-12.544l89.6-89.6c12.97-12.97 28.16-21.675 45.568-26.112 17.408-4.437 34.816-4.437 52.224 0 17.408 4.437 32.597 13.141 45.568 26.112zM243.2 294.4c-4.096 3.413-8.363 5.12-12.8 5.12-4.437 0-8.533-1.792-12.288-5.376-3.755-3.584-5.632-7.85-5.632-12.8 0-4.95 1.707-9.13 5.12-12.544l51.2-51.2c3.755-3.413 8.107-5.12 13.056-5.12 4.95 0 9.216 1.707 12.8 5.12 3.584 3.413 5.376 7.595 5.376 12.544 0 4.95-1.877 9.301-5.632 13.056l-51.2 51.2z" id="Mask"/></g></g></symbol><symbol id="cx-match-small" viewBox="0 0 512 512"><g id="Page-1" stroke="none" stroke-width="1" fill="none" fill-rule="evenodd"><g id="match-small" fill="#000"><path d="M295.503 243.038l132.06 134.481L295.504 512V410.734H64v-66.43h231.503V243.038zm-99.443-75.342v101.266L64 134.481 196.06 0v101.266h231.504v66.43H196.06z" id="Mask"/></g></g></symbol><symbol id="cx-matches-active" viewBox="0 0 512 512"><g id="Page-1" stroke="none" stroke-width="1" fill="none" fill-rule="evenodd"><g id="matches-active" fill="#000"><path d="M200.513 293.119c12.34 5.55 20.578 17.909 20.578 31.835v47.41c0 19.28-15.63 34.909-34.91 34.909h-81.454c-19.28 0-34.909-15.63-34.909-34.91v-47.41c0-13.925 8.237-26.285 20.578-31.834C103.174 309.481 123.086 320 145.455 320c22.368 0 42.28-10.52 55.058-26.881zm102.032-48.755v-11.637c0-19.28 15.63-34.909 34.91-34.909h23.444c19.28 0 34.909 15.63 34.909 34.91v11.636h23.101c19.28 0 34.91 15.629 34.91 34.909v93.09c0 19.28-15.63 34.91-34.91 34.91H279.273c-19.28 0-34.91-15.63-34.91-34.91v-93.09c0-19.28 15.63-34.91 34.91-34.91h23.272zm23.273 0h46.717v-11.637c0-6.426-5.21-11.636-11.636-11.636h-23.444c-6.427 0-11.637 5.21-11.637 11.636v11.637zm34.91-66.136h-23.273v-38.592c0-6.426-5.21-11.636-11.637-11.636H174.545c-6.426 0-11.636 5.21-11.636 11.636v23.273h-23.273v-23.273c0-19.28 15.63-34.909 34.91-34.909h151.272c19.28 0 34.91 15.63 34.91 34.91v38.591zM145.454 308.364c-32.133 0-58.182-26.05-58.182-58.182 0-32.133 26.049-58.182 58.182-58.182 32.132 0 58.181 26.049 58.181 58.182s-26.049 58.182-58.181 58.182z" id="Mask"/></g></g></symbol><symbol id="cx-matches" viewBox="0 0 512 512"><g id="Page-1" stroke="none" stroke-width="1" fill="none" fill-rule="evenodd"><g id="matches" fill="#000"><path d="M96.236 291.093c-9.23-11.092-14.781-25.353-14.781-40.911 0-35.346 28.653-64 64-64 35.346 0 64 28.654 64 64 0 15.558-5.552 29.82-14.782 40.911 15.513 3.889 26.418 17.838 26.418 33.86v47.41c0 19.28-15.63 34.91-34.91 34.91h-81.454c-19.28 0-34.909-15.63-34.909-34.91v-47.41c0-16.022 10.905-29.971 26.418-33.86zm24.362 18.083l-18.588 4.463a11.636 11.636 0 0 0-8.92 11.315v47.41c0 6.426 5.21 11.636 11.637 11.636h81.455c6.426 0 11.636-5.21 11.636-11.636v-47.41c0-5.38-3.688-10.059-8.92-11.315l-18.587-4.463c-7.642 3.224-16.041 5.006-24.856 5.006-8.816 0-17.215-1.782-24.857-5.006zm181.947-64.812v-11.637c0-19.28 15.63-34.909 34.91-34.909h23.444c19.28 0 34.909 15.63 34.909 34.91v11.636h23.101c19.28 0 34.91 15.629 34.91 34.909v93.09c0 19.28-15.63 34.91-34.91 34.91H279.273c-19.28 0-34.91-15.63-34.91-34.91v-93.09c0-19.28 15.63-34.91 34.91-34.91h23.272zm23.273 0h46.717v-11.637c0-6.426-5.21-11.636-11.636-11.636h-23.444c-6.427 0-11.637 5.21-11.637 11.636v11.637zm34.91-66.136h-23.273v-38.592c0-6.426-5.21-11.636-11.637-11.636H174.545c-6.426 0-11.636 5.21-11.636 11.636v23.273h-23.273v-23.273c0-19.28 15.63-34.909 34.91-34.909h151.272c19.28 0 34.91 15.63 34.91 34.91v38.591zm-81.455 89.408c-6.427 0-11.637 5.21-11.637 11.637v93.09c0 6.427 5.21 11.637 11.637 11.637h139.636c6.427 0 11.636-5.21 11.636-11.636v-93.091c0-6.427-5.21-11.637-11.636-11.637H279.273zM145.455 290.91c22.493 0 40.727-18.234 40.727-40.727 0-22.493-18.234-40.727-40.727-40.727-22.494 0-40.728 18.234-40.728 40.727 0 22.493 18.234 40.727 40.728 40.727z" id="Mask"/></g></g></symbol><symbol id="cx-more" viewBox="0 0 512 512"><g id="Page-1" stroke="none" stroke-width="1" fill="none" fill-rule="evenodd"><g id="more" fill="#000"><path d="M64 256c0-8.875 3.157-16.47 9.472-22.784 6.315-6.315 13.91-9.472 22.784-9.472 8.875 0 16.384 3.157 22.528 9.472C124.928 239.531 128 247.126 128 256c0 8.875-3.072 16.384-9.216 22.528-6.144 6.144-13.653 9.216-22.528 9.216-8.875 0-16.47-3.072-22.784-9.216C67.157 272.384 64 264.875 64 256zm160.256 0c0-8.875 3.072-16.47 9.216-22.784 6.144-6.315 13.653-9.472 22.528-9.472 8.875 0 16.47 3.157 22.784 9.472 6.315 6.315 9.472 13.824 9.472 22.528 0 8.704-3.157 16.213-9.472 22.528-6.315 6.315-13.824 9.472-22.528 9.472-8.704 0-16.213-3.157-22.528-9.472-6.315-6.315-9.472-13.739-9.472-22.272zM384 256c0-8.875 3.157-16.47 9.472-22.784 6.315-6.315 13.91-9.472 22.784-9.472 8.875 0 16.384 3.157 22.528 9.472C444.928 239.531 448 247.126 448 256c0 8.875-3.072 16.384-9.216 22.528-6.144 6.144-13.653 9.216-22.528 9.216-8.875 0-16.47-3.072-22.784-9.216C387.157 272.384 384 264.875 384 256z" id="Mask"/></g></g></symbol><symbol id="cx-notfound" viewBox="0 0 512 512"><g id="Page-1" stroke="none" stroke-width="1" fill="none" fill-rule="evenodd"><g id="notfound" fill="#000"><path d="M431.696 80.15c17.887 17.84 27.781 41.66 27.94 67.145 0 25.48-9.857 49.333-27.79 67.22l-89.571 89.335c-18.085 18.037-42.23 27.786-67.375 27.786-25.146 0-49.29-9.749-67.374-27.786a13.206 13.206 0 0 1 0-18.718c5.177-5.164 13.547-5.164 18.724 0 26.791 26.72 70.36 26.72 97.148.003l89.5-89.413c12.93-12.896 20.05-30.076 20.05-48.427 0-18.352-7.12-35.53-20.05-48.427-12.933-12.899-30.166-20.003-48.576-20.003s-35.643 7.104-48.576 20.003l-68.482 68.303c-5.177 5.163-13.547 5.163-18.724 0a13.206 13.206 0 0 1 0-18.719l68.482-68.302c37.145-37.048 97.53-37.048 134.674 0zM258.574 353.455c5.241-5.217 13.71-5.217 18.952 0a13.346 13.346 0 0 1 0 18.94l-59.277 59.003c-18.289 18.205-42.766 28.238-68.79 28.238-25.94 0-50.36-10.049-68.706-28.229-18.294-18.13-28.39-42.509-28.39-68.444 0-25.971 10.067-50.282 28.381-68.511l86.172-85.774c37.928-37.752 99.578-37.752 137.505 0a13.346 13.346 0 0 1 0 18.94c-5.241 5.217-13.71 5.217-18.952 0-27.444-27.318-72.08-27.318-99.523-.002l-86.174 85.852c-27.43 27.303-27.43 71.687 0 98.99 13.248 13.186 30.902 20.45 49.763 20.45 18.86 0 36.515-7.264 49.762-20.45l59.277-59.003zm49.79 24.727c6.783 0 11.636 6.108 11.636 13.09v43.637c0 6.964-4.902 13.091-11.636 13.091-6.735 0-11.637-6.127-11.637-13.09v-43.637c0-6.964 4.902-13.091 11.637-13.091zm77.574 23.921c5.174 5.184 5.174 13.566-.107 18.854-2.552 2.43-5.844 3.77-9.303 3.77-3.536 0-6.86-1.318-9.41-3.874l-31.602-31.665c-5.173-5.184-5.173-13.566 0-18.75 5.18-5.19 13.563-5.19 18.743-.003l31.68 31.668zm2.426-70.467c7.017 0 13.09 4.893 13.09 11.637 0 6.734-6.127 11.636-13.09 11.636h-43.637c-6.963 0-13.09-4.902-13.09-11.636 0-6.735 6.127-11.637 13.09-11.637h43.637zm-208-186.181c-6.735 0-11.637-6.128-11.637-13.091V88.727c0-6.963 4.902-13.09 11.637-13.09 6.734 0 11.636 6.127 11.636 13.09v43.637c0 6.963-4.902 13.09-11.636 13.09zm-45.97 7.769l-31.602-31.69c-5.177-5.18-5.177-13.56 0-18.739 5.18-5.181 13.56-5.181 18.74 0l31.676 31.689c5.177 5.18 5.177 13.56-.107 18.844-2.553 2.426-5.843 3.763-9.3 3.763-3.534 0-6.856-1.316-9.407-3.867zM100.364 192c-6.964 0-13.091-4.902-13.091-11.636 0-6.735 6.127-11.637 13.09-11.637H144c6.964 0 13.09 4.902 13.09 11.637 0 6.734-6.126 11.636-13.09 11.636h-43.636z" id="Mask"/></g></g></symbol><symbol id="cx-phone-work" viewBox="0 0 512 512"><g id="Page-1" stroke="none" stroke-width="1" fill="none" fill-rule="evenodd"><g id="phone-work" fill="#000"><path d="M452.56 280.22h-14.274v-58.793c.17-.594.336-1.187.498-1.779 6.827-23.552 9.216-45.397 7.168-65.536-2.048-19.115-8.363-36.864-18.944-53.248-8.192-12.63-15.19-21.675-20.992-27.136-5.461-4.779-9.728-7.168-12.8-7.168-2.39 0-4.779 1.195-7.168 3.584-15.36 16.043-26.624 29.525-33.792 40.448-4.096 6.485-6.997 12.288-8.704 17.408-1.707 4.437-2.219 7.85-1.536 10.24l.512 1.024 4.096 5.12 18.432 19.456c11.947 11.947 19.285 19.968 22.016 24.064 3.567 4.904 5.896 10.536 6.988 16.896h-39c-3.207-3.727-8.579-9.359-16.116-16.896l-2.048-2.048c-9.557-9.899-16.043-16.896-19.456-20.992-4.779-5.803-7.85-11.093-9.216-15.872-5.12-15.701-.341-34.987 14.336-57.856 8.192-12.63 20.992-27.99 38.4-46.08 9.557-9.557 20.139-14.336 31.744-14.336 12.288 0 24.576 5.461 36.864 16.384 8.192 7.85 17.237 19.285 27.136 34.304 13.312 20.821 21.333 43.776 24.064 68.864 2.73 25.088.17 51.456-7.68 79.104-4.994 17.023-11.836 33.971-20.527 50.844zM179.2 480.594c-2.74.116-5.47.174-8.192.174-32.427 0-61.781-8.533-88.064-25.6-31.403-19.797-48.128-39.595-50.176-59.392-1.365-13.653 3.413-25.77 14.336-36.352 15.36-15.36 29.013-27.136 40.96-35.328 19.115-12.97 35.67-19.456 49.664-19.456 4.779 0 9.045.683 12.8 2.048 4.779 1.365 10.07 4.437 15.872 9.216 2.65 2.169 6.917 6.038 12.8 11.61v49.322a541.768 541.768 0 0 1-9.216-8.708l-5.632-5.632a431.714 431.714 0 0 0-18.432-17.408c-3.413-3.072-5.461-4.608-6.144-4.608l-2.048-.512c-6.485 0-16.384 4.608-29.696 13.824-11.264 8.192-23.381 18.432-36.352 30.72-2.39 2.39-3.584 4.779-3.584 7.168v.512c0 3.072 2.901 7.68 8.704 13.824 5.803 6.144 14.336 12.63 25.6 19.456 20.139 12.97 43.008 19.456 68.608 19.456 2.666 0 5.396-.08 8.192-.238v35.904zm76.665 23.201c-28.203 0-51.065-22.862-51.065-51.064v-94.44c0-28.202 22.862-51.064 51.065-51.064h16.885v-25.762c0-28.203 22.863-51.065 51.065-51.065h41.92c28.203 0 51.065 22.862 51.065 51.065v25.762h26.49c28.201 0 51.064 22.862 51.064 51.064v94.729c0 28.202-22.863 51.064-51.065 51.064l-187.424-.289zm126.892-196.568v-25.762c0-9.401-7.62-17.022-17.021-17.022h-41.921c-9.4 0-17.022 7.62-17.022 17.022v25.762h75.964z" id="Mask"/></g></g></symbol><symbol id="cx-pin" viewBox="0 0 512 512"><g id="Page-1" stroke="none" stroke-width="1" fill="none" fill-rule="evenodd"><g id="pin" fill="#000"><g id="Group" transform="translate(102 25)"><path d="M47.4 46.6c31.333-30.667 69-46 113-46s81.667 15.333 113 46 47 67.666 47 111c0 34.667-13.333 76.333-40 125s-53.333 88.667-80 120l-40 46c-4.667-4.667-10.5-11.167-17.5-19.5s-19.667-24.5-38-48.5-34.5-47.333-48.5-70-26.833-48.333-38.5-77C6.233 204.933.4 179.6.4 157.6c0-43.334 15.667-80.333 47-111zm72 151c11.333 10.667 25 16 41 16s29.5-5.5 40.5-16.5 16.5-24.167 16.5-39.5c0-15.333-5.5-28.5-16.5-39.5s-24.5-16.5-40.5-16.5-29.5 5.5-40.5 16.5-16.5 24.167-16.5 39.5c0 15.333 5.333 28.667 16 40z" id="ion-android-pin---Ionicons"/></g></g></g></symbol><symbol id="cx-settings-active" viewBox="0 0 512 512"><g id="Page-1" stroke="none" stroke-width="1" fill="none" fill-rule="evenodd"><g id="settings-active" fill="#000"><path d="M419.468 227.235c1.737 9.681 2.544 18.494 2.42 26.438-.124 7.944-.93 16.632-2.42 26.065l-1.49 8.937-26.438 8.937c-2.234 6.702-5.089 13.653-8.564 20.852l12.288 24.948-5.213 7.448c-5.213 7.447-10.799 14.15-16.756 20.107-3.972 4.22-10.675 9.93-20.108 17.129l-7.075 5.213-25.32-12.66c-7.2 3.475-14.15 6.33-20.853 8.564l-8.937 26.81-8.564 1.117c-7.696 1.49-16.508 2.235-26.438 2.235s-18.618-.745-26.065-2.235l-8.937-1.117-8.937-26.81c-6.702-2.234-13.653-5.089-20.852-8.564l-24.949 12.288-7.447-4.841c-8.44-6.454-15.143-12.164-20.108-17.129-6.95-7.447-12.536-14.15-16.756-20.107l-5.213-7.075 12.288-25.321c-3.475-7.2-6.33-14.15-8.564-20.852l-26.438-8.937-1.49-8.564c-1.49-9.682-2.234-18.494-2.234-26.438 0-7.944.745-16.757 2.234-26.438l1.49-8.564 26.438-8.937c2.234-6.703 5.089-13.653 8.564-20.853l-12.288-25.32 4.84-7.075c10.427-14.398 22.839-26.81 37.237-37.237l7.075-5.213 25.32 12.66c5.71-2.73 12.661-5.585 20.853-8.564l8.937-26.81 8.564-1.117c7.944-1.49 16.819-2.234 26.624-2.234 9.806 0 18.556.745 26.252 2.234l8.564 1.117 8.937 26.81c6.702 2.235 13.653 5.09 20.852 8.565l24.949-12.66 7.447 5.212c14.15 10.427 26.562 22.839 37.236 37.237l4.841 7.075-12.288 25.32c3.475 7.2 6.33 14.15 8.564 20.853l26.81 8.937 1.118 8.564zM256 190.37c-11.42 0-21.97 2.855-31.65 8.564-9.682 5.71-17.378 13.405-23.087 23.087-5.71 9.681-8.565 20.232-8.565 31.65 0 11.42 2.855 21.97 8.565 31.652 5.71 9.681 13.405 17.377 23.086 23.086 9.682 5.71 20.232 8.565 31.651 8.565 11.42 0 21.97-2.855 31.65-8.565 9.682-5.71 17.378-13.405 23.087-23.086 5.71-9.682 8.565-20.232 8.565-31.651 0-11.42-2.855-21.97-8.565-31.651-5.71-9.682-13.405-17.377-23.086-23.087-9.682-5.71-20.232-8.564-31.651-8.564z" id="Mask"/></g></g></symbol><symbol id="cx-settings" viewBox="0 0 512 512"><g id="Page-1" stroke="none" stroke-width="1" fill="none" fill-rule="evenodd"><g id="settings" fill="#000"><path d="M419.468 227.235c1.737 9.681 2.544 18.494 2.42 26.438-.124 7.944-.93 16.632-2.42 26.065l-1.49 8.937-26.438 8.937c-2.234 6.702-5.089 13.653-8.564 20.852l12.288 24.948-5.213 7.448c-5.213 7.447-10.799 14.15-16.756 20.107-3.972 4.22-10.675 9.93-20.108 17.129l-7.075 5.213-25.32-12.66c-7.2 3.475-14.15 6.33-20.853 8.564l-8.937 26.81-8.564 1.117c-7.696 1.49-16.508 2.235-26.438 2.235s-18.618-.745-26.065-2.235l-8.937-1.117-8.937-26.81c-6.702-2.234-13.653-5.089-20.852-8.564l-24.949 12.288-7.447-4.841c-8.44-6.454-15.143-12.164-20.108-17.129-6.95-7.447-12.536-14.15-16.756-20.107l-5.213-7.075 12.288-25.321c-3.475-7.2-6.33-14.15-8.564-20.852l-26.438-8.937-1.49-8.564c-1.49-9.682-2.234-18.494-2.234-26.438 0-7.944.745-16.757 2.234-26.438l1.49-8.564 26.438-8.937c2.234-6.703 5.089-13.653 8.564-20.853l-12.288-25.32 4.84-7.075c10.427-14.398 22.839-26.81 37.237-37.237l7.075-5.213 25.32 12.66c5.71-2.73 12.661-5.585 20.853-8.564l8.937-26.81 8.564-1.117c7.944-1.49 16.819-2.234 26.624-2.234 9.806 0 18.556.745 26.252 2.234l8.564 1.117 8.937 26.81c6.702 2.235 13.653 5.09 20.852 8.565l24.949-12.66 7.447 5.212c14.15 10.427 26.562 22.839 37.236 37.237l4.841 7.075-12.288 25.32c3.475 7.2 6.33 14.15 8.564 20.853l26.81 8.937 1.118 8.564zM395.636 253.3c.249-3.972 0-8.936-.744-14.894l-24.204-8.192-3.724-11.171c-1.49-4.965-4.096-11.543-7.82-19.735l-5.585-10.427 11.544-22.714c-7.696-8.936-14.895-16.135-21.598-21.597l-23.086 11.543-10.426-5.585c-6.455-3.475-12.909-6.082-19.363-7.82l-11.171-3.723-8.192-24.204c-6.95-.496-11.916-.745-14.895-.745-2.979 0-7.571.249-13.777.745h-1.862l-7.82 24.204-11.543 3.723c-4.468 1.242-10.922 3.848-19.363 7.82l-10.426 5.585-22.714-11.17c-7.944 5.957-15.143 13.032-21.597 21.224l11.17 23.087-5.585 10.426c-3.972 8.44-6.578 14.895-7.82 19.363l-3.35 11.543-24.204 7.82c-.745 5.213-1.117 10.302-1.117 15.267s.372 10.054 1.117 15.267l24.203 8.192 3.352 11.17c1.49 5.462 4.22 11.916 8.192 19.363l5.213 10.427-11.171 22.714c2.979 3.972 6.33 7.82 10.054 11.543 3.723 3.724 7.571 7.075 11.543 10.054l22.714-11.171 10.799 5.585c5.957 2.98 12.288 5.586 18.99 7.82l11.543 3.351 7.82 24.204c5.71.745 10.923 1.117 15.64 1.117 4.716 0 9.68-.372 14.894-1.117l4.468-12.66 3.724-11.544 11.17-3.35c7.945-2.732 14.399-5.462 19.364-8.193l10.798-5.213 22.714 11.17c4.22-3.475 7.944-6.826 11.171-10.053 3.724-3.227 7.2-7.075 10.427-11.543l-11.544-22.714 5.586-10.427c3.475-6.454 6.082-12.908 7.82-19.362l3.723-11.544 24.204-7.82v-1.861c.496-6.206.744-10.675.744-13.405v-.373zM256 190.37c11.42 0 21.97 2.856 31.65 8.565 9.682 5.71 17.378 13.405 23.087 23.087 5.71 9.681 8.565 20.232 8.565 31.65 0 11.42-2.855 21.97-8.565 31.652-5.71 9.681-13.405 17.377-23.086 23.086-9.682 5.71-20.232 8.565-31.651 8.565-11.42 0-21.97-2.855-31.65-8.565-9.682-5.71-17.378-13.405-23.087-23.086-5.71-9.682-8.565-20.232-8.565-31.651 0-11.42 2.855-21.97 8.565-31.651 5.71-9.682 13.405-17.377 23.086-23.087 9.682-5.71 20.232-8.564 31.651-8.564zm26.438 89.74c7.199-7.199 10.798-16.011 10.798-26.437 0-10.427-3.6-19.239-10.798-26.438-3.476-3.476-7.51-6.144-12.102-8.006A37.807 37.807 0 0 0 256 216.436c-4.965 0-9.743.931-14.336 2.793s-8.502 4.53-11.73 8.006c-7.447 7.447-11.17 16.26-11.17 26.438 0 10.178 3.723 18.99 11.17 26.438 3.228 3.475 7.137 6.144 11.73 8.005A37.807 37.807 0 0 0 256 290.91c9.93 0 18.742-3.6 26.438-10.798z" id="Mask"/></g></g></symbol><symbol id="cx-sort-asc" viewBox="0 0 512 512"><g id="Page-1" stroke="none" stroke-width="1" fill="none" fill-rule="evenodd"><g id="sort-asc" fill="#000"><path d="M332.8 76.8h128V128h-128V76.8zM179.2 230.4h281.6v51.2H179.2v-51.2zM51.2 384h409.6v51.2H51.2V384z" id="Mask"/></g></g></symbol><symbol id="cx-sort-desc" viewBox="0 0 512 512"><g id="Page-1" stroke="none" stroke-width="1" fill="none" fill-rule="evenodd"><g id="sort-desc" fill="#000"><path d="M332.8 76.8h128V128h-128V76.8zM179.2 230.4h281.6v51.2H179.2v-51.2zM51.2 384h409.6v51.2H51.2V384z" id="Mask" transform="matrix(1 0 0 -1 0 512)"/></g></g></symbol><symbol id="cx-talentpools-active" viewBox="0 0 512 512"><g id="Page-1" stroke="none" stroke-width="1" fill="none" fill-rule="evenodd"><g id="talentpools-active" fill="#000"><path d="M463.004 235.717c15.16 4.132 25.723 17.913 25.723 33.68v44.785c0 19.28-15.63 34.909-34.909 34.909H384c-19.28 0-34.91-15.63-34.91-34.91v-44.785c0-15.766 10.563-29.547 25.724-33.679 11.479 10.62 27.005 17.138 44.095 17.138s32.616-6.518 44.095-17.138zm-162.91 0c15.162 4.132 25.724 17.913 25.724 33.68v44.785c0 19.28-15.63 34.909-34.909 34.909h-69.818c-19.28 0-34.91-15.63-34.91-34.91v-44.785c0-15.766 10.563-29.547 25.724-33.679 11.479 10.62 27.005 17.138 44.095 17.138s32.616-6.518 44.095-17.138zm-162.908 0c15.16 4.132 25.723 17.913 25.723 33.68v44.785c0 19.28-15.63 34.909-34.909 34.909H58.182c-19.28 0-34.91-15.63-34.91-34.91v-44.785c0-15.766 10.563-29.547 25.724-33.679 11.479 10.62 27.005 17.138 44.095 17.138s32.616-6.518 44.095-17.138zm304.996 136.647V384c0 19.28-15.63 34.91-34.91 34.91H116.365c-19.28 0-34.91-15.63-34.91-34.91v-11.636h23.273V384c0 6.427 5.21 11.636 11.637 11.636h290.909c6.426 0 11.636-5.21 11.636-11.636v-11.636h23.273zm-349.091-128c-32.133 0-58.182-26.05-58.182-58.182C34.91 154.049 60.958 128 93.091 128s58.182 26.049 58.182 58.182-26.05 58.182-58.182 58.182zm162.909 0c-32.133 0-58.182-26.05-58.182-58.182 0-32.133 26.05-58.182 58.182-58.182 32.133 0 58.182 26.049 58.182 58.182s-26.05 58.182-58.182 58.182zm162.91 0c-32.134 0-58.183-26.05-58.183-58.182 0-32.133 26.05-58.182 58.182-58.182 32.133 0 58.182 26.049 58.182 58.182s-26.049 58.182-58.182 58.182z" id="Mask"/></g></g></symbol><symbol id="cx-talentpools" viewBox="0 0 512 512"><g id="Page-1" stroke="none" stroke-width="1" fill="none" fill-rule="evenodd"><g id="talentpools" fill="#000"><path d="M381.57 230.804c-12.74-10.673-20.843-26.701-20.843-44.622 0-32.133 26.05-58.182 58.182-58.182 32.133 0 58.182 26.049 58.182 58.182 0 17.92-8.102 33.95-20.844 44.622l6.36 1.654c15.383 4.002 26.12 17.89 26.12 33.785v47.939c0 19.28-15.63 34.909-34.909 34.909H384c-19.28 0-34.91-15.63-34.91-34.91v-47.938c0-15.895 10.738-29.783 26.121-33.785l6.36-1.654zm-162.908 0c-12.742-10.673-20.844-26.701-20.844-44.622 0-32.133 26.05-58.182 58.182-58.182 32.133 0 58.182 26.049 58.182 58.182 0 17.92-8.102 33.95-20.844 44.622l6.36 1.654c15.383 4.002 26.12 17.89 26.12 33.785v47.939c0 19.28-15.63 34.909-34.909 34.909h-69.818c-19.28 0-34.91-15.63-34.91-34.91v-47.938c0-15.895 10.738-29.783 26.121-33.785l6.36-1.654zm-162.91 0c-12.74-10.673-20.843-26.701-20.843-44.622C34.91 154.049 60.958 128 93.091 128s58.182 26.049 58.182 58.182c0 17.92-8.103 33.95-20.844 44.622l6.36 1.654c15.383 4.002 26.12 17.89 26.12 33.785v47.939c0 19.28-15.63 34.909-34.909 34.909H58.182c-19.28 0-34.91-15.63-34.91-34.91v-47.938c0-15.895 10.738-29.783 26.121-33.785l6.36-1.654zm386.43 141.56V384c0 19.28-15.63 34.91-34.91 34.91H116.365c-19.28 0-34.91-15.63-34.91-34.91v-11.636h23.273V384c0 6.427 5.21 11.636 11.637 11.636h290.909c6.426 0 11.636-5.21 11.636-11.636v-11.636h23.273zM93.09 221.09c19.28 0 34.909-15.63 34.909-34.91 0-19.279-15.63-34.908-34.91-34.908-19.279 0-34.908 15.63-34.908 34.909 0 19.28 15.63 34.909 34.909 34.909zm162.909 0c19.28 0 34.91-15.63 34.91-34.91 0-19.279-15.63-34.908-34.91-34.908-19.28 0-34.91 15.63-34.91 34.909 0 19.28 15.63 34.909 34.91 34.909zM55.252 254.98a11.636 11.636 0 0 0-8.707 11.262v47.939c0 6.426 5.21 11.636 11.637 11.636H128c6.427 0 11.636-5.21 11.636-11.636v-47.939c0-5.298-3.579-9.928-8.706-11.261L96.02 245.9c-1.92-.5-3.938-.5-5.859 0l-34.909 9.082zm162.91 0a11.636 11.636 0 0 0-8.707 11.262v47.939c0 6.426 5.21 11.636 11.636 11.636h69.818c6.427 0 11.636-5.21 11.636-11.636v-47.939c0-5.298-3.579-9.928-8.706-11.261l-34.91-9.082c-1.92-.5-3.937-.5-5.859 0l-34.909 9.082zm162.908 0a11.636 11.636 0 0 0-8.706 11.262v47.939c0 6.426 5.21 11.636 11.636 11.636h69.818c6.427 0 11.637-5.21 11.637-11.636v-47.939c0-5.298-3.58-9.928-8.707-11.261l-34.91-9.082c-1.92-.5-3.937-.5-5.858 0l-34.91 9.082zm37.84-33.89c19.279 0 34.908-15.63 34.908-34.91 0-19.279-15.63-34.908-34.909-34.908-19.28 0-34.909 15.63-34.909 34.909 0 19.28 15.63 34.909 34.91 34.909z" id="Mask"/></g></g></symbol><symbol id="cx-wifi-circle" viewBox="0 0 512 512"><g id="Page-1" stroke="none" stroke-width="1" fill="none" fill-rule="evenodd"><g id="wifi-circle" fill="#000"><path d="M256 512C114.615 512 0 397.385 0 256S114.615 0 256 0s256 114.615 256 256-114.615 256-256 256zm163.087-315.213c-22.192-22.192-47.712-39.082-76.56-50.67-27.863-11.343-56.835-17.014-86.917-17.014s-59.053 5.67-86.916 17.013c-28.849 11.59-54.369 28.479-76.56 50.67-2.466 2.466-3.699 5.487-3.699 9.062 0 3.575 1.295 6.657 3.884 9.246 2.589 2.59 5.67 3.884 9.246 3.884 3.575 0 6.596-1.233 9.062-3.699 19.725-19.725 42.286-34.766 67.683-45.122 24.658-10.11 50.424-15.164 77.3-15.164 26.877 0 52.643 5.054 77.3 15.164 25.397 10.356 47.958 25.397 67.684 45.122 2.712 2.466 5.856 3.699 9.431 3.699 3.576 0 6.658-1.295 9.247-3.884 2.589-2.589 3.883-5.67 3.883-9.246 0-3.575-1.356-6.596-4.068-9.061zm-277.762 55.848c-2.466 2.466-3.699 5.486-3.699 9.061 0 3.576 1.233 6.658 3.699 9.247 2.465 2.589 5.486 3.883 9.061 3.883s6.596-1.233 9.062-3.698c17.506-17.507 38.095-29.342 61.766-35.507 22.93-5.917 45.862-5.917 68.793 0 23.67 6.165 44.26 18 61.766 35.507 2.466 2.465 5.486 3.698 9.061 3.698 3.576 0 6.658-1.294 9.247-3.883 2.589-2.59 3.883-5.671 3.883-9.247 0-3.575-1.356-6.595-4.068-9.061-20.712-20.712-45.122-34.767-73.232-42.164-27.37-7.15-54.738-7.15-82.108 0-28.109 7.397-52.52 21.452-73.231 42.164zm179.75 59.177h.37c-11.836-11.836-25.705-19.787-41.61-23.856-15.903-4.068-31.807-4.068-47.71 0-15.904 4.069-29.774 12.02-41.61 23.856-2.465 2.466-3.698 5.486-3.698 9.061 0 3.576 1.295 6.658 3.884 9.247 2.589 2.589 5.67 3.883 9.246 3.883 3.575 0 6.596-1.233 9.061-3.698 8.384-8.384 18.308-14.117 29.774-17.199 11.465-3.082 22.93-3.082 34.396 0 11.466 3.082 21.39 8.815 29.774 17.199l1.11 1.11c2.712 2.465 5.794 3.698 9.246 3.698 3.452 0 6.472-1.295 9.061-3.884 2.59-2.589 3.884-5.67 3.884-9.246 0-3.575-1.356-6.596-4.069-9.062l-1.11-1.11zm-84.697 73.601c0 5.425 1.91 10.048 5.733 13.87 3.821 3.822 8.445 5.733 13.87 5.733 5.424 0 10.047-1.911 13.869-5.733 3.822-3.822 5.733-8.445 5.733-13.87 0-5.424-1.911-10.048-5.733-13.87-3.822-3.821-8.445-5.732-13.87-5.732-5.424 0-10.048 1.91-13.87 5.733-3.821 3.821-5.732 8.445-5.732 13.87z" id="Mask"/></g></g></symbol></svg>