<?xml version="1.0" encoding="UTF-8"?>
<svg width="512px" height="512px" viewBox="0 0 512 512" version="1.1" xmlns="http://www.w3.org/2000/svg" xmlns:xlink="http://www.w3.org/1999/xlink">
    <!-- Generator: sketchtool 52.2 (67145) - http://www.bohemiancoding.com/sketch -->
    <title>activities-active</title>
    <desc>Created with sketchtool.</desc>
    <g id="Page-1" stroke="none" stroke-width="1" fill="none" fill-rule="evenodd">
        <g id="activities-active" fill="#000000">
            <path d="M229.097343,296.820529 L152.271817,296.820529 C147.822101,296.820529 143.465655,295.544876 139.718744,293.144745 C128.895651,286.211874 125.742003,271.817821 132.674874,260.994728 L266.86646,51.5046014 C272.31187,43.0036245 282.617077,38.9828924 292.38079,41.549801 C304.811545,44.817883 312.239359,57.5443053 308.971277,69.9750607 L273.522649,204.810485 L348.952878,204.810485 C353.436112,204.810485 357.823926,206.105412 361.588791,208.539581 C372.382441,215.518203 375.475132,229.925476 368.49651,240.719126 L226.891189,459.73632 C221.240333,468.476349 210.473519,472.401958 200.523316,469.350116 C188.235141,465.581191 181.328924,452.56434 185.097849,440.276165 L229.097343,296.820529 Z" id="Mask"></path>
        </g>
    </g>
</svg>