<?xml version="1.0" encoding="UTF-8"?>
<svg width="512px" height="512px" viewBox="0 0 512 512" version="1.1" xmlns="http://www.w3.org/2000/svg" xmlns:xlink="http://www.w3.org/1999/xlink">
    <!-- Generator: sketchtool 52.2 (67145) - http://www.bohemiancoding.com/sketch -->
    <title>agenda-active</title>
    <desc>Created with sketchtool.</desc>
    <g id="Page-1" stroke="none" stroke-width="1" fill="none" fill-rule="evenodd">
        <g id="agenda-active" fill="#000000">
            <path d="M392.657455,114.036364 C399.856521,114.036364 406.062519,116.580823 411.275636,121.669818 C416.488753,126.758813 419.095273,132.902752 419.095273,140.101818 L419.095273,390.330182 C419.095273,397.529248 416.488753,403.735247 411.275636,408.948364 C406.062519,414.161481 399.856521,416.768 392.657455,416.768 L119.342545,416.768 C112.143479,416.768 105.999541,414.161481 100.910545,408.948364 C95.8215503,403.735247 93.2770909,397.529248 93.2770909,390.330182 L93.2770909,140.101818 C93.2770909,132.902752 95.8215503,126.758813 100.910545,121.669818 C105.999541,116.580823 112.143479,114.036364 119.342545,114.036364 L162.909091,114.036364 L162.909091,103.982545 C162.909091,100.25889 164.150291,97.0938312 166.632727,94.4872727 C169.115164,91.8807142 172.218163,90.5774545 175.941818,90.5774545 C179.665473,90.5774545 182.768472,91.8807142 185.250909,94.4872727 C187.733346,97.0938312 188.974545,100.25889 188.974545,103.982545 L188.974545,114.036364 L323.025455,114.036364 L323.025455,103.982545 C323.025455,100.25889 324.328714,97.0938312 326.935273,94.4872727 C329.541831,91.8807142 332.582771,90.5774545 336.058182,90.5774545 C339.533593,90.5774545 342.574532,91.8807142 345.181091,94.4872727 C347.787649,97.0938312 349.090909,100.25889 349.090909,103.982545 L349.090909,114.036364 L392.657455,114.036364 Z M119.342545,140.101818 L119.342545,181.061818 L392.657455,181.061818 L392.657455,140.101818 L349.090909,140.101818 L349.090909,147.549091 C349.090909,151.024502 347.849709,154.065442 345.367273,156.672 C342.884836,159.278558 339.781837,160.581818 336.058182,160.581818 C332.334527,160.581818 329.231528,159.278558 326.749091,156.672 C324.266654,154.065442 323.025455,151.024502 323.025455,147.549091 L323.025455,140.101818 L188.974545,140.101818 L188.974545,147.549091 C188.974545,151.024502 187.671286,154.065442 185.064727,156.672 C182.458169,159.278558 179.417229,160.581818 175.941818,160.581818 C172.466407,160.581818 169.425468,159.278558 166.818909,156.672 C164.212351,154.065442 162.909091,151.024502 162.909091,147.549091 L162.909091,140.101818 L119.342545,140.101818 Z M174.452364,253.672727 C171.225196,253.672727 168.494557,254.789807 166.260364,257.024 C164.026171,259.258193 162.909091,261.988832 162.909091,265.216 C162.909091,268.443168 164.026171,271.173807 166.260364,273.408 C168.494557,275.642193 171.225196,276.759273 174.452364,276.759273 L197.911273,276.759273 C201.13844,276.759273 203.86908,275.642193 206.103273,273.408 C208.337466,271.173807 209.454545,268.443168 209.454545,265.216 C209.454545,261.988832 208.337466,259.258193 206.103273,257.024 C203.86908,254.789807 201.13844,253.672727 197.911273,253.672727 L174.452364,253.672727 Z M244.456727,253.672727 C241.22956,253.672727 238.49892,254.789807 236.264727,257.024 C234.030534,259.258193 232.913455,261.988832 232.913455,265.216 C232.913455,268.443168 234.030534,271.173807 236.264727,273.408 C238.49892,275.642193 241.22956,276.759273 244.456727,276.759273 L267.543273,276.759273 C270.77044,276.759273 273.56314,275.642193 275.921455,273.408 C278.279769,271.173807 279.458909,268.443168 279.458909,265.216 C279.458909,261.988832 278.279769,259.258193 275.921455,257.024 C273.56314,254.789807 270.77044,253.672727 267.543273,253.672727 L244.456727,253.672727 Z M314.088727,253.672727 C310.86156,253.672727 308.13092,254.789807 305.896727,257.024 C303.662534,259.258193 302.545455,261.988832 302.545455,265.216 C302.545455,268.443168 303.662534,271.173807 305.896727,273.408 C308.13092,275.642193 310.86156,276.759273 314.088727,276.759273 L337.547636,276.759273 C340.774804,276.759273 343.505443,275.642193 345.739636,273.408 C347.973829,271.173807 349.090909,268.443168 349.090909,265.216 C349.090909,261.988832 347.973829,259.258193 345.739636,257.024 C343.505443,254.789807 340.774804,253.672727 337.547636,253.672727 L314.088727,253.672727 Z M174.452364,324.049455 C171.225196,324.049455 168.494557,325.228594 166.260364,327.586909 C164.026171,329.945224 162.909091,332.737923 162.909091,335.965091 C162.909091,339.192259 164.026171,341.922898 166.260364,344.157091 C168.494557,346.391284 171.225196,347.508364 174.452364,347.508364 L197.911273,347.508364 C201.13844,347.508364 203.86908,346.391284 206.103273,344.157091 C208.337466,341.922898 209.454545,339.192259 209.454545,335.965091 C209.454545,332.737923 208.337466,329.945224 206.103273,327.586909 C203.86908,325.228594 201.13844,324.049455 197.911273,324.049455 L174.452364,324.049455 Z M244.456727,324.049455 C241.22956,324.049455 238.49892,325.228594 236.264727,327.586909 C234.030534,329.945224 232.913455,332.737923 232.913455,335.965091 C232.913455,339.192259 234.030534,341.922898 236.264727,344.157091 C238.49892,346.391284 241.22956,347.508364 244.456727,347.508364 L267.543273,347.508364 C271.018684,347.508364 273.873443,346.391284 276.107636,344.157091 C278.341829,341.922898 279.458909,339.130199 279.458909,335.778909 C279.458909,332.42762 278.341829,329.63492 276.107636,327.400727 C273.873443,325.166534 271.018684,324.049455 267.543273,324.049455 L244.456727,324.049455 Z" id="Mask"></path>
        </g>
    </g>
</svg>