<?xml version="1.0" encoding="UTF-8"?>
<svg width="512px" height="512px" viewBox="0 0 512 512" version="1.1" xmlns="http://www.w3.org/2000/svg" xmlns:xlink="http://www.w3.org/1999/xlink">
    <!-- Generator: sketchtool 52.2 (67145) - http://www.bohemiancoding.com/sketch -->
    <title>candidates-active</title>
    <desc>Created with sketchtool.</desc>
    <g id="Page-1" stroke="none" stroke-width="1" fill="none" fill-rule="evenodd">
        <g id="candidates-active" fill="#000000">
            <path d="M207.425449,234.10996 C220.807618,245.483801 238.143503,252.346181 257.082182,252.346181 C275.775341,252.346181 292.906992,245.660575 306.216469,234.55003 L334.855611,242.225951 C350.11616,246.316115 360.727273,260.145759 360.727273,275.94493 L360.727273,384 C360.727273,403.279759 345.09794,418.909091 325.818182,418.909091 L186.181818,418.909091 C166.90206,418.909091 151.272727,403.279759 151.272727,384 L151.272727,275.94493 C151.272727,260.145759 161.88384,246.316115 177.144389,242.225951 L207.425449,234.10996 Z M457.922298,243.49256 L461.969139,244.464321 C477.66296,248.232853 488.727273,262.268543 488.727273,278.408489 L488.727273,325.818182 C488.727273,345.09794 473.09794,360.727273 453.818182,360.727273 L372.363636,360.727273 L372.363636,275.94493 C372.363636,264.415774 368.125757,253.673211 360.953107,245.415603 C362.014933,245.049033 363.102217,244.730975 364.212679,244.464321 L368.259521,243.49256 C379.806241,254.827486 395.632193,261.818182 413.090909,261.818182 C430.549625,261.818182 446.375577,254.827486 457.922298,243.49256 Z M148.825097,244.201349 C149.699742,244.439874 150.559036,244.710478 151.401842,245.011687 C144.014263,253.321369 139.636364,264.226859 139.636364,275.94493 L139.636364,360.727273 L69.8181818,360.727273 C50.5384233,360.727273 34.9090909,345.09794 34.9090909,325.818182 L34.9090909,277.879436 C34.9090909,262.12272 45.4607614,248.338021 60.6294484,244.201349 C72.108451,255.1182 87.6354296,261.818182 104.727273,261.818182 C121.819116,261.818182 137.346094,255.1182 148.825097,244.201349 Z M104.727273,250.181818 C75.8076349,250.181818 52.3636364,226.73782 52.3636364,197.818182 C52.3636364,168.898544 75.8076349,145.454545 104.727273,145.454545 C133.646911,145.454545 157.090909,168.898544 157.090909,197.818182 C157.090909,226.73782 133.646911,250.181818 104.727273,250.181818 Z M413.090909,250.181818 C384.171271,250.181818 360.727273,226.73782 360.727273,197.818182 C360.727273,168.898544 384.171271,145.454545 413.090909,145.454545 C442.010547,145.454545 465.454545,168.898544 465.454545,197.818182 C465.454545,226.73782 442.010547,250.181818 413.090909,250.181818 Z M257.082182,240.709818 C221.138285,240.709818 192,211.571533 192,175.627636 C192,139.68374 221.138285,110.545455 257.082182,110.545455 C293.026078,110.545455 322.164363,139.68374 322.164363,175.627636 C322.164363,211.571533 293.026078,240.709818 257.082182,240.709818 Z" id="Mask"></path>
        </g>
    </g>
</svg>