<?xml version="1.0" encoding="UTF-8"?>
<svg width="512px" height="512px" viewBox="0 0 512 512" version="1.1" xmlns="http://www.w3.org/2000/svg" xmlns:xlink="http://www.w3.org/1999/xlink">
    <!-- Generator: sketchtool 52.2 (67145) - http://www.bohemiancoding.com/sketch -->
    <title>candidates</title>
    <desc>Created with sketchtool.</desc>
    <g id="Page-1" stroke="none" stroke-width="1" fill="none" fill-rule="evenodd">
        <g id="candidates" fill="#000000">
            <path d="M66.8886121,266.617883 C61.7609849,267.951779 58.1818182,272.58115 58.1818182,277.879436 L58.1818182,325.818182 C58.1818182,332.244768 63.3915956,337.454545 69.8181818,337.454545 L139.636364,337.454545 C146.06295,337.454545 151.272727,332.244768 151.272727,325.818182 L151.272727,277.879436 C151.272727,272.58115 147.693561,267.951779 142.565933,266.617883 L107.656842,257.536665 C105.735765,257.036918 103.718781,257.036918 101.797703,257.536665 L66.8886121,266.617883 Z M205.677482,222.94209 C193.604447,210.391674 186.181818,193.335388 186.181818,174.545455 C186.181818,135.985937 217.440483,104.727273 256,104.727273 C294.559517,104.727273 325.818182,135.985937 325.818182,174.545455 C325.818182,193.335388 318.395553,210.391674 306.322518,222.94209 L334.855611,230.589588 C344.24264,233.105518 351.870465,239.306571 356.351555,247.384353 C358.803177,246.119638 361.435439,245.131215 364.212679,244.464321 L375.067809,241.857697 C362.721765,231.188809 354.909091,215.415869 354.909091,197.818182 C354.909091,165.685251 380.957978,139.636364 413.090909,139.636364 C445.22384,139.636364 471.272727,165.685251 471.272727,197.818182 C471.272727,215.415869 463.460053,231.188809 451.114009,241.857697 L461.969139,244.464321 C477.66296,248.232853 488.727273,262.268543 488.727273,278.408489 L488.727273,325.818182 C488.727273,345.09794 473.09794,360.727273 453.818182,360.727273 L372.363636,360.727273 C368.283515,360.727273 364.366882,360.027296 360.727273,358.740879 L360.727273,372.363636 C360.727273,391.643395 345.09794,407.272727 325.818182,407.272727 L186.181818,407.272727 C166.90206,407.272727 151.272727,391.643395 151.272727,372.363636 L151.272727,358.740879 C147.633118,360.027296 143.716485,360.727273 139.636364,360.727273 L69.8181818,360.727273 C50.5384233,360.727273 34.9090909,345.09794 34.9090909,325.818182 L34.9090909,277.879436 C34.9090909,261.984577 45.6465911,248.096465 61.0294728,244.094777 L67.3890491,242.440402 C54.6477675,231.767622 46.5454545,215.7391 46.5454545,197.818182 C46.5454545,165.685251 72.5943418,139.636364 104.727273,139.636364 C136.860204,139.636364 162.909091,165.685251 162.909091,197.818182 C162.909091,215.7391 154.806778,231.767622 142.065496,242.440402 L148.425073,244.094777 C151.05564,244.77909 153.550363,245.752513 155.878775,246.975642 C160.388357,239.097627 167.916306,233.062917 177.144389,230.589588 L205.677482,222.94209 Z M231.767317,240.043578 L183.169342,253.068906 C178.082492,254.432294 174.545455,259.042176 174.545455,264.308566 L174.545455,372.363636 C174.545455,378.790223 179.755232,384 186.181818,384 L325.818182,384 C332.244768,384 337.454545,378.790223 337.454545,372.363636 L337.454545,264.308566 C337.454545,259.042176 333.917508,254.432294 328.830658,253.068906 L280.232683,240.043578 C272.683887,242.837463 264.520172,244.363636 256,244.363636 C247.479828,244.363636 239.316113,242.837463 231.767317,240.043578 Z M360.727273,325.818182 C360.727273,332.244768 365.93705,337.454545 372.363636,337.454545 L453.818182,337.454545 C460.244768,337.454545 465.454545,332.244768 465.454545,325.818182 L465.454545,278.408489 C465.454545,273.028507 461.766441,268.349944 456.535167,267.093766 L415.807895,257.313994 C414.021955,256.885139 412.159863,256.885139 410.373923,257.313994 L369.646651,267.093766 C364.415377,268.349944 360.727273,273.028507 360.727273,278.408489 L360.727273,325.818182 Z M104.727273,232.727273 C124.007031,232.727273 139.636364,217.09794 139.636364,197.818182 C139.636364,178.538423 124.007031,162.909091 104.727273,162.909091 C85.4475142,162.909091 69.8181818,178.538423 69.8181818,197.818182 C69.8181818,217.09794 85.4475142,232.727273 104.727273,232.727273 Z M413.090909,232.727273 C432.370668,232.727273 448,217.09794 448,197.818182 C448,178.538423 432.370668,162.909091 413.090909,162.909091 C393.811151,162.909091 378.181818,178.538423 378.181818,197.818182 C378.181818,217.09794 393.811151,232.727273 413.090909,232.727273 Z M256,221.090909 C281.706345,221.090909 302.545455,200.251799 302.545455,174.545455 C302.545455,148.83911 281.706345,128 256,128 C230.293655,128 209.454545,148.83911 209.454545,174.545455 C209.454545,200.251799 230.293655,221.090909 256,221.090909 Z" id="Mask"></path>
        </g>
    </g>
</svg>