<?xml version="1.0" encoding="UTF-8"?>
<svg width="512px" height="512px" viewBox="0 0 512 512" version="1.1" xmlns="http://www.w3.org/2000/svg" xmlns:xlink="http://www.w3.org/1999/xlink">
    <!-- Generator: sketchtool 52.2 (67145) - http://www.bohemiancoding.com/sketch -->
    <title>companies-active</title>
    <desc>Created with sketchtool.</desc>
    <g id="Page-1" stroke="none" stroke-width="1" fill="none" fill-rule="evenodd">
        <g id="companies-active" fill="#000000">
            <path d="M349.556364,202.293706 L390.050909,202.293706 C412.415429,202.293706 430.545455,220.327551 430.545455,242.573427 L430.545455,376.839161 C430.545455,399.085036 412.415429,417.118881 390.050909,417.118881 L345.944731,417.118881 C348.241718,413.169141 349.556364,408.583436 349.556364,403.692308 L349.556364,390.265734 L349.556364,229.146853 L349.556364,202.293706 Z M363.054545,256 L363.054545,296.27972 L390.050909,296.27972 L390.050909,256 L363.054545,256 Z M363.054545,323.132867 L363.054545,363.412587 L390.050909,363.412587 L390.050909,323.132867 L363.054545,323.132867 Z M133.585455,81.4545455 L295.563636,81.4545455 C317.928156,81.4545455 336.058182,99.4883905 336.058182,121.734266 L336.058182,390.265734 C336.058182,412.51161 317.928156,430.545455 295.563636,430.545455 L133.585455,430.545455 C111.220935,430.545455 93.0909091,412.51161 93.0909091,390.265734 L93.0909091,121.734266 C93.0909091,99.4883905 111.220935,81.4545455 133.585455,81.4545455 Z M147.083636,135.160839 L147.083636,175.440559 L174.08,175.440559 L174.08,135.160839 L147.083636,135.160839 Z M147.083636,202.293706 L147.083636,242.573427 L174.08,242.573427 L174.08,202.293706 L147.083636,202.293706 Z M147.083636,269.426573 L147.083636,309.706294 L174.08,309.706294 L174.08,269.426573 L147.083636,269.426573 Z M201.076364,269.426573 L201.076364,309.706294 L228.072727,309.706294 L228.072727,269.426573 L201.076364,269.426573 Z M255.069091,269.426573 L255.069091,309.706294 L282.065455,309.706294 L282.065455,269.426573 L255.069091,269.426573 Z M147.083636,336.559441 L147.083636,376.839161 L174.08,376.839161 L174.08,336.559441 L147.083636,336.559441 Z M201.076364,336.559441 L201.076364,376.839161 L228.072727,376.839161 L228.072727,336.559441 L201.076364,336.559441 Z M201.076364,135.160839 L201.076364,175.440559 L228.072727,175.440559 L228.072727,135.160839 L201.076364,135.160839 Z M201.076364,202.293706 L201.076364,242.573427 L228.072727,242.573427 L228.072727,202.293706 L201.076364,202.293706 Z M255.069091,135.160839 L255.069091,175.440559 L282.065455,175.440559 L282.065455,135.160839 L255.069091,135.160839 Z M255.069091,202.293706 L255.069091,242.573427 L282.065455,242.573427 L282.065455,202.293706 L255.069091,202.293706 Z M255.069091,336.559441 L255.069091,376.839161 L282.065455,376.839161 L282.065455,336.559441 L255.069091,336.559441 Z" id="Mask"></path>
        </g>
    </g>
</svg>