<?xml version="1.0" encoding="UTF-8"?>
<svg width="512px" height="512px" viewBox="0 0 512 512" version="1.1" xmlns="http://www.w3.org/2000/svg" xmlns:xlink="http://www.w3.org/1999/xlink">
    <!-- Generator: sketchtool 52.2 (67145) - http://www.bohemiancoding.com/sketch -->
    <title>contacts</title>
    <desc>Created with sketchtool.</desc>
    <g id="Page-1" stroke="none" stroke-width="1" fill="none" fill-rule="evenodd">
        <g id="contacts" fill="#000000">
            <path d="M174.563572,309.348495 C181.685628,312.457355 189.55052,314.181818 197.818182,314.181818 C205.395463,314.181818 212.634431,312.733329 219.273295,310.098142 C240.787823,301.558306 256,280.55565 256,256 C256,223.867069 229.951113,197.818182 197.818182,197.818182 C165.685251,197.818182 139.636364,223.867069 139.636364,256 C139.636364,279.865269 154.005186,300.37452 174.563572,309.348495 Z M163.168786,323.492535 L136.832049,330.032329 C131.643193,331.320798 128,335.979289 128,341.325725 L128,418.909091 C128,425.335677 133.209777,430.545455 139.636364,430.545455 L256,430.545455 C262.426586,430.545455 267.636364,425.335677 267.636364,418.909091 L267.636364,341.325725 C267.636364,335.979289 263.99317,331.320798 258.804314,330.032329 L228.457762,322.496839 C229.241628,325.190761 229.041805,328.134662 227.785377,330.765246 L207.986678,372.217813 C206.945549,374.397625 205.251823,376.19938 203.140463,377.373128 C197.523486,380.49572 190.438665,378.473621 187.316074,372.856644 L164.375287,331.590323 C162.969239,329.061097 162.591571,326.182267 163.168786,323.492535 Z M197.818182,174.545455 L197.818182,104.727273 C197.818182,85.4475142 213.447514,69.8181818 232.727273,69.8181818 L372.363636,69.8181818 C391.643395,69.8181818 407.272727,85.4475142 407.272727,104.727273 L407.272727,337.454545 C407.272727,356.734304 391.643395,372.363636 372.363636,372.363636 L290.909091,372.363636 L290.909091,418.909091 C290.909091,438.188849 275.279759,453.818182 256,453.818182 L139.636364,453.818182 C120.356605,453.818182 104.727273,438.188849 104.727273,418.909091 L104.727273,341.325725 C104.727273,325.286416 115.656852,311.310944 131.223421,307.445538 L134.08897,306.733981 C122.994426,292.816048 116.363636,275.182376 116.363636,256 C116.363636,211.013897 152.832079,174.545455 197.818182,174.545455 Z M221.090909,177.918588 C229.497424,180.420489 237.335189,184.242975 244.363636,189.145475 L244.363636,174.545455 L267.636364,174.545455 L267.636364,209.454545 L264.672707,209.454545 C273.875609,222.648244 279.272727,238.69384 279.272727,256 C279.272727,275.182376 272.641937,292.816048 261.547393,306.733981 L264.412943,307.445538 C279.979511,311.310944 290.909091,325.286416 290.909091,341.325725 L290.909091,349.090909 L372.363636,349.090909 C378.790223,349.090909 384,343.881132 384,337.454545 L384,104.727273 C384,98.3006865 378.790223,93.0909091 372.363636,93.0909091 L232.727273,93.0909091 C226.300687,93.0909091 221.090909,98.3006865 221.090909,104.727273 L221.090909,177.918588 Z M244.363636,116.363636 L267.636364,116.363636 L267.636364,151.272727 L244.363636,151.272727 L244.363636,116.363636 Z M290.909091,116.363636 L314.181818,116.363636 L314.181818,151.272727 L290.909091,151.272727 L290.909091,116.363636 Z M290.909091,174.545455 L314.181818,174.545455 L314.181818,209.454545 L290.909091,209.454545 L290.909091,174.545455 Z M290.909091,232.727273 L314.181818,232.727273 L314.181818,267.636364 L290.909091,267.636364 L290.909091,232.727273 Z M290.909091,290.909091 L314.181818,290.909091 L314.181818,325.818182 L290.909091,325.818182 L290.909091,290.909091 Z M337.454545,116.363636 L360.727273,116.363636 L360.727273,151.272727 L337.454545,151.272727 L337.454545,116.363636 Z M337.454545,174.545455 L360.727273,174.545455 L360.727273,209.454545 L337.454545,209.454545 L337.454545,174.545455 Z M337.454545,232.727273 L360.727273,232.727273 L360.727273,267.636364 L337.454545,267.636364 L337.454545,232.727273 Z M337.454545,290.909091 L360.727273,290.909091 L360.727273,325.818182 L337.454545,325.818182 L337.454545,290.909091 Z" id="Mask"></path>
        </g>
    </g>
</svg>