<?xml version="1.0" encoding="UTF-8"?>
<svg width="512px" height="512px" viewBox="0 0 512 512" version="1.1" xmlns="http://www.w3.org/2000/svg" xmlns:xlink="http://www.w3.org/1999/xlink">
    <!-- Generator: sketchtool 52.2 (67145) - http://www.bohemiancoding.com/sketch -->
    <title>contacts-active</title>
    <desc>Created with sketchtool.</desc>
    <g id="Page-1" stroke="none" stroke-width="1" fill="none" fill-rule="evenodd">
        <g id="contacts-active" fill="#000000">
            <path d="M197.818182,331.636364 C156.045372,331.636364 122.181818,297.77281 122.181818,256 C122.181818,214.22719 156.045372,180.363636 197.818182,180.363636 C239.590992,180.363636 273.454545,214.22719 273.454545,256 C273.454545,297.77281 239.590992,331.636364 197.818182,331.636364 Z M167.955058,338.029683 L187.316074,372.856644 C190.438665,378.473621 197.523486,380.49572 203.140463,377.373128 C205.251823,376.19938 206.945549,374.397625 207.986678,372.217813 L223.670746,339.380054 C241.399955,333.889128 256.711754,322.899163 267.612764,308.403541 C281.456627,313.278358 290.909091,326.409586 290.909091,341.325725 L290.909091,418.909091 C290.909091,438.188849 275.279759,453.818182 256,453.818182 L139.636364,453.818182 C120.356605,453.818182 104.727273,438.188849 104.727273,418.909091 L104.727273,341.325725 C104.727273,326.409586 114.179736,313.278358 128.0236,308.403541 C138.093816,321.794415 151.928125,332.193619 167.955058,338.029683 Z M197.818182,168.727273 L197.818182,104.727273 C197.818182,85.4475142 213.447514,69.8181818 232.727273,69.8181818 L372.363636,69.8181818 C391.643395,69.8181818 407.272727,85.4475142 407.272727,104.727273 L407.272727,337.454545 C407.272727,356.734304 391.643395,372.363636 372.363636,372.363636 L302.545455,372.363636 L302.545455,341.325725 C302.545455,335.923284 301.615475,330.696452 299.890775,325.818182 L314.181818,325.818182 L314.181818,290.909091 L290.909091,290.909091 L290.909091,310.538422 C286.351618,305.368928 280.637043,301.194847 274.095689,298.438559 C281.099979,285.876217 285.090909,271.404174 285.090909,256 C285.090909,236.34924 278.596256,218.215387 267.636364,203.627855 L267.636364,174.545455 L244.363636,174.545455 L244.363636,182.162163 C230.892201,173.652279 214.93034,168.727273 197.818182,168.727273 Z M244.363636,116.363636 L244.363636,151.272727 L267.636364,151.272727 L267.636364,116.363636 L244.363636,116.363636 Z M290.909091,116.363636 L290.909091,151.272727 L314.181818,151.272727 L314.181818,116.363636 L290.909091,116.363636 Z M290.909091,174.545455 L290.909091,209.454545 L314.181818,209.454545 L314.181818,174.545455 L290.909091,174.545455 Z M290.909091,232.727273 L290.909091,267.636364 L314.181818,267.636364 L314.181818,232.727273 L290.909091,232.727273 Z M337.454545,116.363636 L337.454545,151.272727 L360.727273,151.272727 L360.727273,116.363636 L337.454545,116.363636 Z M337.454545,174.545455 L337.454545,209.454545 L360.727273,209.454545 L360.727273,174.545455 L337.454545,174.545455 Z M337.454545,232.727273 L337.454545,267.636364 L360.727273,267.636364 L360.727273,232.727273 L337.454545,232.727273 Z M337.454545,290.909091 L337.454545,325.818182 L360.727273,325.818182 L360.727273,290.909091 L337.454545,290.909091 Z" id="Mask"></path>
        </g>
    </g>
</svg>