<?xml version="1.0" encoding="UTF-8"?>
<svg width="512px" height="512px" viewBox="0 0 512 512" version="1.1" xmlns="http://www.w3.org/2000/svg" xmlns:xlink="http://www.w3.org/1999/xlink">
    <!-- Generator: sketchtool 52.2 (67145) - http://www.bohemiancoding.com/sketch -->
    <title>dashboard-active</title>
    <desc>Created with sketchtool.</desc>
    <g id="Page-1" stroke="none" stroke-width="1" fill="none" fill-rule="evenodd">
        <g id="dashboard-active" fill="#000000">
            <path d="M133.818182,93.0909091 L242.424242,93.0909091 L242.424242,215.272727 L93.0909091,215.272727 L93.0909091,133.818182 C93.0909091,111.32513 111.32513,93.0909091 133.818182,93.0909091 Z M269.575758,296.727273 L418.909091,296.727273 L418.909091,378.181818 C418.909091,400.67487 400.67487,418.909091 378.181818,418.909091 L269.575758,418.909091 L269.575758,296.727273 Z M93.0909091,242.424242 L242.424242,242.424242 L242.424242,418.909091 L133.818182,418.909091 C111.32513,418.909091 93.0909091,400.67487 93.0909091,378.181818 L93.0909091,242.424242 Z M269.575758,93.0909091 L378.181818,93.0909091 C400.67487,93.0909091 418.909091,111.32513 418.909091,133.818182 L418.909091,269.575758 L269.575758,269.575758 L269.575758,93.0909091 Z" id="Mask"></path>
        </g>
    </g>
</svg>