<?xml version="1.0" encoding="UTF-8"?>
<svg width="512px" height="512px" viewBox="0 0 512 512" version="1.1" xmlns="http://www.w3.org/2000/svg" xmlns:xlink="http://www.w3.org/1999/xlink">
    <!-- Generator: sketchtool 52.2 (67145) - http://www.bohemiancoding.com/sketch -->
    <title>dashboard</title>
    <desc>Created with sketchtool.</desc>
    <g id="Page-1" stroke="none" stroke-width="1" fill="none" fill-rule="evenodd">
        <g id="dashboard" fill="#000000">
            <path d="M269.575758,93.0909091 L378.181818,93.0909091 C400.67487,93.0909091 418.909091,111.32513 418.909091,133.818182 L418.909091,269.575758 L418.909091,378.181818 C418.909091,400.67487 400.67487,418.909091 378.181818,418.909091 L242.424242,418.909091 L133.818182,418.909091 C111.32513,418.909091 93.0909091,400.67487 93.0909091,378.181818 L93.0909091,242.424242 L93.0909091,133.818182 C93.0909091,111.32513 111.32513,93.0909091 133.818182,93.0909091 L269.575758,93.0909091 Z M120.242424,215.272727 L242.424242,215.272727 L242.424242,120.242424 L133.818182,120.242424 C126.320498,120.242424 120.242424,126.320498 120.242424,133.818182 L120.242424,215.272727 Z M269.575758,296.727273 L269.575758,391.757576 L378.181818,391.757576 C385.679502,391.757576 391.757576,385.679502 391.757576,378.181818 L391.757576,296.727273 L269.575758,296.727273 Z M120.242424,242.424242 L120.242424,378.181818 C120.242424,385.679502 126.320498,391.757576 133.818182,391.757576 L242.424242,391.757576 L242.424242,242.424242 L120.242424,242.424242 Z M269.575758,120.242424 L269.575758,269.575758 L391.757576,269.575758 L391.757576,133.818182 C391.757576,126.320498 385.679502,120.242424 378.181818,120.242424 L269.575758,120.242424 Z" id="Mask"></path>
        </g>
    </g>
</svg>