<?xml version="1.0" encoding="UTF-8"?>
<svg width="512px" height="512px" viewBox="0 0 512 512" version="1.1" xmlns="http://www.w3.org/2000/svg" xmlns:xlink="http://www.w3.org/1999/xlink">
    <!-- Generator: sketchtool 52.2 (67145) - http://www.bohemiancoding.com/sketch -->
    <title>documents</title>
    <desc>Created with sketchtool.</desc>
    <g id="Page-1" stroke="none" stroke-width="1" fill="none" fill-rule="evenodd">
        <g id="documents" fill="#000000">
            <path d="M158.108508,227.549091 L250.733341,135.086545 C252.100504,133.51175 253.695504,132.274429 255.518388,131.374545 L257.910912,130.024727 C260.873098,128.674902 264.177026,128 267.822794,128 L383.005705,128 C389.613659,128 395.310087,130.305916 400.095157,134.917818 C404.880228,139.52972 407.272727,145.097664 407.272727,151.621818 L407.272727,441.832727 C407.272727,448.356881 404.880228,453.924825 400.095157,458.536727 C395.310087,463.148629 389.613659,465.454545 383.005705,465.454545 L174.856172,465.454545 C168.248217,465.454545 162.665718,463.148629 158.108508,458.536727 C153.551298,453.924825 151.272727,448.356881 151.272727,441.832727 L151.272727,244.084364 C151.272727,237.56021 153.551298,232.048507 158.108508,227.549091 Z M255.518388,164.445091 L188.527734,230.923636 L255.518388,230.923636 L255.518388,164.445091 Z M175.197961,441.832727 L383.347494,441.832727 L383.347494,151.621818 L279.443622,151.621818 L279.443622,230.923636 C279.443622,237.44779 277.051122,243.015735 272.266052,247.627636 C267.480981,252.239538 261.784554,254.545455 255.176599,254.545455 L175.197961,254.545455 L175.197961,441.832727 Z M325.818182,114.036364 L301.892948,114.036364 L301.892948,70.1672727 L197.989076,70.1672727 L197.989076,149.469091 C197.989076,155.993245 195.596577,161.561189 190.811506,166.173091 C186.026436,170.784993 180.330008,173.090909 173.722054,173.090909 L93.7434155,173.090909 L93.7434155,360.378182 L138.619807,360.378182 L138.619807,384 L93.4016264,384 C86.7936717,384 81.211173,381.694084 76.6539629,377.082182 C72.0967527,372.47028 69.8181818,366.902336 69.8181818,360.378182 L69.8181818,162.629818 C69.8181818,156.105664 72.0967527,150.593962 76.6539629,146.094545 L169.278796,53.632 C170.645959,52.0572042 172.240959,50.8198833 174.063843,49.92 L176.456366,48.5701818 C179.418553,47.2203569 182.72248,46.5454545 186.368249,46.5454545 L301.551159,46.5454545 C308.159114,46.5454545 313.855541,48.8513709 318.640612,53.4632727 C323.425682,58.0751746 325.818182,63.6431189 325.818182,70.1672727 L325.818182,114.036364 Z M174.063843,82.9905455 L107.073188,149.469091 L174.063843,149.469091 L174.063843,82.9905455 Z" id="Mask"></path>
        </g>
    </g>
</svg>