<?xml version="1.0" encoding="UTF-8"?>
<svg width="512px" height="512px" viewBox="0 0 512 512" version="1.1" xmlns="http://www.w3.org/2000/svg" xmlns:xlink="http://www.w3.org/1999/xlink">
    <!-- Generator: sketchtool 52.2 (67145) - http://www.bohemiancoding.com/sketch -->
    <title>email-work</title>
    <desc>Created with sketchtool.</desc>
    <g id="Page-1" stroke="none" stroke-width="1" fill="none" fill-rule="evenodd">
        <g id="email-work" fill="#000000">
            <path d="M478.72,280.219718 L442.88,280.219718 L442.88,114.688 L335.33893,204.8 L278.911416,204.8 L404.48,99.84 L105.472,99.84 L242.688,213.504 C246.442685,217.258685 250.879974,219.136 256,219.136 L256,254.976 C248.831964,254.976 241.920033,253.61068 235.264,250.88 C228.607967,248.14932 222.720026,244.224026 217.6,239.104 L66.56,114.688 L66.56,412.672 L179.2,412.672 L179.2,449.024 L66.56,449.024 C56.6612838,449.024 48.1280358,445.440036 40.96,438.272 C33.7919642,431.103964 30.208,422.570716 30.208,412.672 L30.208,99.84 C30.208,89.9412838 33.7919642,81.4933683 40.96,74.496 C48.1280358,67.4986317 56.6612838,64 66.56,64 L442.88,64 C452.778716,64 461.226632,67.4986317 468.224,74.496 C475.221368,81.4933683 478.72,89.9412838 478.72,99.84 L478.72,280.219718 Z M255.864653,503.795267 C227.662424,503.795267 204.8,480.932843 204.8,452.730613 L204.8,358.291227 C204.8,330.088998 227.662424,307.226574 255.864653,307.226574 L272.750359,307.226574 L272.750359,281.464653 C272.750359,253.262424 295.612783,230.4 323.815012,230.4 L365.735531,230.4 C393.937761,230.4 416.800185,253.262424 416.800185,281.464653 L416.800185,307.226574 L443.289212,307.226574 C471.491441,307.226574 494.353865,330.088998 494.353865,358.291227 L494.353865,453.019804 C494.353865,481.222033 471.491441,504.084457 443.289212,504.084457 L255.864653,503.795267 Z M382.757082,307.226574 L382.757082,281.464653 C382.757082,272.06391 375.136274,264.443102 365.735531,264.443102 L323.815012,264.443102 C314.414269,264.443102 306.793461,272.06391 306.793461,281.464653 L306.793461,307.226574 L382.757082,307.226574 Z" id="Mask"></path>
        </g>
    </g>
</svg>