<?xml version="1.0" encoding="UTF-8"?>
<svg width="512px" height="512px" viewBox="0 0 512 512" version="1.1" xmlns="http://www.w3.org/2000/svg" xmlns:xlink="http://www.w3.org/1999/xlink">
    <!-- Generator: sketchtool 52.2 (67145) - http://www.bohemiancoding.com/sketch -->
    <title>filetag-cv</title>
    <desc>Created with sketchtool.</desc>
    <g id="Page-1" stroke="none" stroke-width="1" fill="none" fill-rule="evenodd">
        <g id="filetag-cv" fill="#000000">
            <path d="M384,358.4 C455.68,358.4 512,414.72 512,486.4 L512,512 L256,512 L256,486.4 C256,414.72 312.32,358.4 384,358.4 Z M460.8,281.6 C460.8,325.12 427.52,358.4 384,358.4 C340.48,358.4 307.2,325.12 307.2,281.6 C307.2,238.08 340.48,204.8 384,204.8 C427.52,204.8 460.8,238.08 460.8,281.6 Z M51.2,179.2 L51.2,409.6 L230.4,409.6 L230.4,460.8 L0,460.8 L0,143.36 L143.36,0 L384,0 L384,153.6 L332.8,153.6 L332.8,51.2 L179.2,51.2 L179.2,179.2 L51.2,179.2 Z M312.32,460.8 L455.68,460.8 C445.44,430.08 417.28,409.6 384,409.6 C350.72,409.6 322.56,430.08 312.32,460.8 Z M384,307.2 C399.36,307.2 409.6,296.96 409.6,281.6 C409.6,266.24 399.36,256 384,256 C368.64,256 358.4,266.24 358.4,281.6 C358.4,296.96 368.64,307.2 384,307.2 Z M128,87.04 L87.04,128 L128,128 L128,87.04 Z" id="Mask"></path>
        </g>
    </g>
</svg>