<?xml version="1.0" encoding="UTF-8"?>
<svg width="512px" height="512px" viewBox="0 0 512 512" version="1.1" xmlns="http://www.w3.org/2000/svg" xmlns:xlink="http://www.w3.org/1999/xlink">
    <!-- Generator: sketchtool 52.2 (67145) - http://www.bohemiancoding.com/sketch -->
    <title>filetag-portrait</title>
    <desc>Created with sketchtool.</desc>
    <g id="Page-1" stroke="none" stroke-width="1" fill="none" fill-rule="evenodd">
        <g id="filetag-portrait" fill="#000000">
            <path d="M0,0 L512,0 L512,512 L0,512 L0,0 Z M445.913164,460.8 L460.8,460.8 L460.8,51.2 L51.2,51.2 L51.2,460.8 L66.0868364,460.8 C96.4682701,385.745143 170.051135,332.8 256,332.8 C341.948865,332.8 415.53173,385.745143 445.913164,460.8 Z M394.10211,460.8 C367.543946,414.888855 317.90474,384 261.051055,384 C204.19737,384 154.558163,414.888855 128,460.8 L394.10211,460.8 Z M256,307.2 C199.446042,307.2 153.6,261.353958 153.6,204.8 C153.6,148.246042 199.446042,102.4 256,102.4 C312.553958,102.4 358.4,148.246042 358.4,204.8 C358.4,261.353958 312.553958,307.2 256,307.2 Z M256,256 C284.276979,256 307.2,233.076979 307.2,204.8 C307.2,176.523021 284.276979,153.6 256,153.6 C227.723021,153.6 204.8,176.523021 204.8,204.8 C204.8,233.076979 227.723021,256 256,256 Z" id="Mask"></path>
        </g>
    </g>
</svg>