<?xml version="1.0" encoding="UTF-8"?>
<svg width="512px" height="512px" viewBox="0 0 512 512" version="1.1" xmlns="http://www.w3.org/2000/svg" xmlns:xlink="http://www.w3.org/1999/xlink">
    <!-- Generator: sketchtool 52.2 (67145) - http://www.bohemiancoding.com/sketch -->
    <title>filetag-video</title>
    <desc>Created with sketchtool.</desc>
    <g id="Page-1" stroke="none" stroke-width="1" fill="none" fill-rule="evenodd">
        <g id="filetag-video" fill="#000000">
            <path d="M0,0 L512,0 L512,512 L0,512 L0,0 Z M51.2,460.8 L460.8,460.8 L460.8,179.2 L51.2,179.2 L51.2,460.8 Z M99.84,128 L181.76,128 L258.56,51.2 L176.64,51.2 L99.84,128 Z M330.24,51.2 L253.44,128 L335.36,128 L412.16,51.2 L330.24,51.2 Z M460.8,74.24 L407.04,128 L460.8,128 L460.8,74.24 Z M104.96,51.2 L51.2,51.2 L51.2,104.96 L104.96,51.2 Z M204.8,384 L204.8,256 L307.2,320 L204.8,384 Z" id="Mask"></path>
        </g>
    </g>
</svg>