<?xml version="1.0" encoding="UTF-8"?>
<svg width="512px" height="512px" viewBox="0 0 512 512" version="1.1" xmlns="http://www.w3.org/2000/svg" xmlns:xlink="http://www.w3.org/1999/xlink">
    <!-- Generator: sketchtool 52.2 (67145) - http://www.bohemiancoding.com/sketch -->
    <title>filetag-legal</title>
    <desc>Created with sketchtool.</desc>
    <g id="Page-1" stroke="none" stroke-width="1" fill="none" fill-rule="evenodd">
        <g id="filetag-legal" fill="#000000">
            <path d="M51.2,179.2 L179.2,179.2 L179.2,51.2 L332.8,51.2 L332.8,128 L384,128 L384,0 L143.36,0 L0,143.36 L0,460.8 L230.4,460.8 L230.4,409.6 L51.2,409.6 L51.2,179.2 Z M128,87.04 L128,128 L87.04,128 L128,87.04 Z M281.6,322.56 C266.24,304.64 256,281.6 256,256 C256,199.68 302.08,153.6 358.4,153.6 C414.72,153.6 460.8,199.68 460.8,256 C460.8,281.6 450.56,304.64 435.2,322.56 L435.2,512 L358.4,435.2 L281.6,512 L281.6,322.56 Z M384,389.12 L384,355.84 C376.32,355.84 366.08,358.4 358.4,358.4 C350.72,358.4 340.48,358.4 332.8,355.84 L332.8,389.12 L358.4,363.52 L384,389.12 Z M358.4,307.2 C386.56,307.2 409.6,284.16 409.6,256 C409.6,227.84 386.56,204.8 358.4,204.8 C330.24,204.8 307.2,227.84 307.2,256 C307.2,284.16 330.24,307.2 358.4,307.2 Z" id="Mask"></path>
        </g>
    </g>
</svg>