<?xml version="1.0" encoding="UTF-8"?>
<svg width="512px" height="512px" viewBox="0 0 512 512" version="1.1" xmlns="http://www.w3.org/2000/svg" xmlns:xlink="http://www.w3.org/1999/xlink">
    <!-- Generator: sketchtool 52.2 (67145) - http://www.bohemiancoding.com/sketch -->
    <title>filetag-generic</title>
    <desc>Created with sketchtool.</desc>
    <g id="Page-1" stroke="none" stroke-width="1" fill="none" fill-rule="evenodd">
        <g id="filetag-generic" fill="#000000">
            <path d="M317.44,0 L25.6,0 L25.6,512 L486.4,512 L486.4,168.96 L317.44,0 Z M76.8,460.8 L76.8,51.2 L281.6,51.2 L281.6,204.8 L435.2,204.8 L435.2,460.8 L76.8,460.8 Z M332.8,87.04 L399.36,153.6 L332.8,153.6 L332.8,87.04 Z M128,256 L384,256 L384,307.2 L128,307.2 L128,256 Z M128,358.4 L384,358.4 L384,409.6 L128,409.6 L128,358.4 Z M128,153.6 L230.4,153.6 L230.4,204.8 L128,204.8 L128,153.6 Z" id="Mask"></path>
        </g>
    </g>
</svg>