<?xml version="1.0" encoding="UTF-8"?>
<svg width="512px" height="512px" viewBox="0 0 512 512" version="1.1" xmlns="http://www.w3.org/2000/svg" xmlns:xlink="http://www.w3.org/1999/xlink">
    <!-- Generator: sketchtool 52.2 (67145) - http://www.bohemiancoding.com/sketch -->
    <title>inbox-active</title>
    <desc>Created with sketchtool.</desc>
    <g id="Page-1" stroke="none" stroke-width="1" fill="none" fill-rule="evenodd">
        <g id="inbox-active" fill="#000000">
            <path d="M69.8181818,267.636364 L127.932801,122.349816 C135.00135,104.678444 152.116521,93.0909091 171.149171,93.0909091 L352.487193,93.0909091 C371.519843,93.0909091 388.635014,104.678444 395.703563,122.349816 L453.818182,267.636364 L453.818182,384 C453.818182,403.279759 438.188849,418.909091 418.909091,418.909091 L104.727273,418.909091 C85.4475142,418.909091 69.8181818,403.279759 69.8181818,384 L69.8181818,267.636364 Z M94.8836762,267.636364 L200.227287,267.636364 C207.825005,294.498965 232.523005,314.181818 261.818182,314.181818 C291.113359,314.181818 315.811359,294.498965 323.409077,267.636364 L428.752687,267.636364 L374.095378,130.99309 C370.561104,122.157404 362.003518,116.363636 352.487193,116.363636 L171.149171,116.363636 C161.632846,116.363636 153.07526,122.157404 149.540986,130.99309 L94.8836762,267.636364 Z M197.818182,209.454545 L325.818182,209.454545 C332.244768,209.454545 337.454545,214.664323 337.454545,221.090909 C337.454545,227.517495 332.244768,232.727273 325.818182,232.727273 L197.818182,232.727273 C191.391596,232.727273 186.181818,227.517495 186.181818,221.090909 C186.181818,214.664323 191.391596,209.454545 197.818182,209.454545 Z M221.090909,151.272727 L302.545455,151.272727 C308.972041,151.272727 314.181818,156.482505 314.181818,162.909091 C314.181818,169.335677 308.972041,174.545455 302.545455,174.545455 L221.090909,174.545455 C214.664323,174.545455 209.454545,169.335677 209.454545,162.909091 C209.454545,156.482505 214.664323,151.272727 221.090909,151.272727 Z" id="Mask"></path>
        </g>
    </g>
</svg>