<?xml version="1.0" encoding="UTF-8"?>
<svg width="512px" height="512px" viewBox="0 0 512 512" version="1.1" xmlns="http://www.w3.org/2000/svg" xmlns:xlink="http://www.w3.org/1999/xlink">
    <!-- Generator: sketchtool 52.2 (67145) - http://www.bohemiancoding.com/sketch -->
    <title>job-orders-active</title>
    <desc>Created with sketchtool.</desc>
    <g id="Page-1" stroke="none" stroke-width="1" fill="none" fill-rule="evenodd">
        <g id="job-orders-active" fill="#000000">
            <path d="M229.777592,180.520592 L206.504865,180.520592 L206.504865,174.545455 C206.504865,168.118868 201.295087,162.909091 194.868501,162.909091 L126.820128,162.909091 C120.393542,162.909091 115.183764,168.118868 115.183764,174.545455 L115.183764,180.520592 L91.9110368,180.520592 L91.9110368,174.545455 C91.9110368,155.265696 107.540369,139.636364 126.820128,139.636364 L194.868501,139.636364 C214.14826,139.636364 229.777592,155.265696 229.777592,174.545455 L229.777592,180.520592 Z M333.324992,305.570912 L333.324992,227.066047 C333.324992,201.359702 312.485883,180.520592 286.779538,180.520592 L264.096747,180.520592 L264.096747,169.788077 C264.096747,150.508319 279.726079,134.878986 299.005838,134.878986 L329.747487,134.878986 L329.747487,117.267485 C329.747487,97.9877262 345.37682,82.3583938 364.656578,82.3583938 L393.314507,82.3583938 C412.594266,82.3583938 428.223598,97.9877262 428.223598,117.267485 L428.223598,134.878986 L465.530322,134.878986 C484.81008,134.878986 500.439413,150.508319 500.439413,169.788077 L500.439413,270.661821 C500.439413,289.941579 484.81008,305.570912 465.530322,305.570912 L333.324992,305.570912 Z M353.020215,134.878986 L404.950871,134.878986 L404.950871,117.267485 C404.950871,110.840899 399.741094,105.631121 393.314507,105.631121 L364.656578,105.631121 C358.229992,105.631121 353.020215,110.840899 353.020215,117.267485 L353.020215,134.878986 Z M34.9090909,192.156956 L286.779538,192.156956 C306.059296,192.156956 321.688629,207.786288 321.688629,227.066047 L321.688629,387.025457 C321.688629,406.305216 306.059296,421.934548 286.779538,421.934548 L34.9090909,421.934548 C15.6293324,421.934548 2.58379177e-15,406.305216 0,387.025457 L0,227.066047 C-2.58379177e-15,207.786288 15.6293324,192.156956 34.9090909,192.156956 Z" id="Mask"></path>
        </g>
    </g>
</svg>