<?xml version="1.0" encoding="UTF-8"?>
<svg width="512px" height="512px" viewBox="0 0 512 512" version="1.1" xmlns="http://www.w3.org/2000/svg" xmlns:xlink="http://www.w3.org/1999/xlink">
    <!-- Generator: sketchtool 52.2 (67145) - http://www.bohemiancoding.com/sketch -->
    <title>job-order-add</title>
    <desc>Created with sketchtool.</desc>
    <g id="Page-1" stroke="none" stroke-width="1" fill="none" fill-rule="evenodd">
        <g id="job-order-add" fill="#000000">
            <path d="M486.4,256 L435.2,256 L435.2,204.8 C435.2,190.66151 423.73849,179.2 409.6,179.2 L102.4,179.2 C88.2615104,179.2 76.8,190.66151 76.8,204.8 L76.8,409.6 C76.8,423.73849 88.2615104,435.2 102.4,435.2 L256,435.2 L256,486.4 L102.4,486.4 C59.9845312,486.4 25.6,452.015469 25.6,409.6 L25.6,204.8 C25.6,162.384531 59.9845312,128 102.4,128 L153.6,128 L153.6,102.4 C153.6,59.9845312 187.984531,25.6 230.4,25.6 L281.977277,25.6 C324.392745,25.6 358.777277,59.9845312 358.777277,102.4 L358.777277,128 L409.6,128 C452.015469,128 486.4,162.384531 486.4,204.8 L486.4,256 Z M204.8,128 L307.577277,128 L307.577277,102.4 C307.577277,88.2615104 296.115766,76.8 281.977277,76.8 L230.4,76.8 C216.26151,76.8 204.8,88.2615104 204.8,102.4 L204.8,128 Z M487.424,377.856 C492.202691,377.856 496.383982,379.56265 499.968,382.976 C503.552018,386.38935 505.344,390.655974 505.344,395.776 C505.344,400.896026 503.552018,405.16265 499.968,408.576 C496.383982,411.98935 492.202691,413.696 487.424,413.696 L409.6,413.696 L409.6,487.936 C409.6,492.714691 407.722685,496.895982 403.968,500.48 C400.213315,504.064018 395.946691,505.856 391.168,505.856 C386.389309,505.856 382.208018,504.064018 378.624,500.48 C375.039982,496.895982 373.248,492.714691 373.248,487.936 L373.248,413.696 L299.52,413.696 C294.399974,413.696 290.13335,411.904018 286.72,408.32 C283.30665,404.735982 281.6,400.554691 281.6,395.776 C281.6,390.997309 283.30665,386.816018 286.72,383.232 C290.13335,379.647982 294.399974,377.856 299.52,377.856 L373.248,377.856 L373.248,300.032 C373.248,294.911974 374.95465,290.560018 378.368,286.976 C381.78135,283.391982 386.047974,281.6 391.168,281.6 C396.288026,281.6 400.639982,283.391982 404.224,286.976 C407.808018,290.560018 409.6,294.911974 409.6,300.032 L409.6,377.856 L487.424,377.856 Z" id="Mask"></path>
        </g>
    </g>
</svg>