<?xml version="1.0" encoding="UTF-8"?>
<svg width="512px" height="512px" viewBox="0 0 512 512" version="1.1" xmlns="http://www.w3.org/2000/svg" xmlns:xlink="http://www.w3.org/1999/xlink">
    <!-- Generator: sketchtool 52.2 (67145) - http://www.bohemiancoding.com/sketch -->
    <title>link</title>
    <desc>Created with sketchtool.</desc>
    <g id="Page-1" stroke="none" stroke-width="1" fill="none" fill-rule="evenodd">
        <g id="link" fill="#000000">
            <path d="M270.848,332.8 C274.602685,329.045315 278.954642,327.168 283.904,327.168 C288.853358,327.168 293.119982,328.959982 296.704,332.544 C300.288018,336.128018 302.08,340.394642 302.08,345.344 C302.08,350.293358 300.202685,354.645315 296.448,358.4 L206.848,448 C196.949284,457.557381 185.856061,464.895974 173.568,470.016 C161.279939,475.136026 148.480067,477.696 135.168,477.696 C121.855933,477.696 108.970729,475.136026 96.512,470.016 C84.053271,464.895974 73.0453811,457.557381 63.488,448 C53.9306189,438.442619 46.5920256,427.434729 41.472,414.976 C36.3519744,402.517271 33.792,389.461402 33.792,375.808 C33.792,362.154598 36.3519744,349.184061 41.472,336.896 C46.5920256,324.607939 53.9306189,313.685381 63.488,304.128 L152.576,214.528 C156.330685,211.11465 160.682642,209.408 165.632,209.408 C170.581358,209.408 174.847982,211.11465 178.432,214.528 C182.016018,217.94135 183.808,222.122642 183.808,227.072 C183.808,232.021358 181.930685,236.373315 178.176,240.128 L88.576,329.728 C82.4319693,335.872031 77.7386829,342.869294 74.496,350.72 C71.2533171,358.570706 69.632,366.933289 69.632,375.808 C69.632,384.682711 71.3386496,393.130627 74.752,401.152 C78.1653504,409.173373 82.9439693,416.255969 89.088,422.4 C95.2320307,428.544031 102.229294,433.237317 110.08,436.48 C117.930706,439.722683 126.293289,441.344 135.168,441.344 C144.042711,441.344 152.405294,439.722683 160.256,436.48 C168.106706,433.237317 175.103969,428.544031 181.248,422.4 L270.848,332.8 Z M449.536,61.44 C462.506732,74.4107315 471.295977,89.599913 475.904,107.008 C480.512023,124.416087 480.512023,141.823913 475.904,159.232 C471.295977,176.640087 462.506732,191.829268 449.536,204.8 L360.448,294.4 C357.03465,297.81335 352.768026,299.52 347.648,299.52 C342.527974,299.52 338.26135,297.728018 334.848,294.144 C331.43465,290.559982 329.728,286.293358 329.728,281.344 C329.728,276.394642 331.43465,272.21335 334.848,268.8 L424.448,179.2 C430.592031,173.055969 435.285317,166.058706 438.528,158.208 C441.770683,150.357294 443.392,141.994711 443.392,133.12 C443.392,124.245289 441.770683,115.882706 438.528,108.032 C435.285317,100.181294 430.592031,93.1840307 424.448,87.04 C415.914624,78.506624 406.016056,72.7893478 394.752,69.888 C383.487944,66.9866522 372.309389,66.9866522 361.216,69.888 C350.122611,72.7893478 340.309376,78.506624 331.776,87.04 L242.176,176.128 C238.76265,179.54135 234.581358,181.248 229.632,181.248 C224.682642,181.248 220.416018,179.54135 216.832,176.128 C213.247982,172.71465 211.456,168.533358 211.456,163.584 C211.456,158.634642 213.16265,154.45335 216.576,151.04 L306.176,61.44 C319.146732,48.4692685 334.335913,39.7653555 351.744,35.328 C369.152087,30.8906445 386.559913,30.8906445 403.968,35.328 C421.376087,39.7653555 436.565268,48.4692685 449.536,61.44 Z M243.2,294.4 C239.10398,297.81335 234.837356,299.52 230.4,299.52 C225.962644,299.52 221.866685,297.728018 218.112,294.144 C214.357315,290.559982 212.48,286.293358 212.48,281.344 C212.48,276.394642 214.18665,272.21335 217.6,268.8 L268.8,217.6 C272.554685,214.18665 276.906642,212.48 281.856,212.48 C286.805358,212.48 291.071982,214.18665 294.656,217.6 C298.240018,221.01335 300.032,225.194642 300.032,230.144 C300.032,235.093358 298.154685,239.445315 294.4,243.2 L243.2,294.4 Z" id="Mask"></path>
        </g>
    </g>
</svg>