<?xml version="1.0" encoding="UTF-8"?>
<svg width="512px" height="512px" viewBox="0 0 512 512" version="1.1" xmlns="http://www.w3.org/2000/svg" xmlns:xlink="http://www.w3.org/1999/xlink">
    <!-- Generator: sketchtool 52.2 (67145) - http://www.bohemiancoding.com/sketch -->
    <title>matches</title>
    <desc>Created with sketchtool.</desc>
    <g id="Page-1" stroke="none" stroke-width="1" fill="none" fill-rule="evenodd">
        <g id="matches" fill="#000000">
            <path d="M96.2360296,291.093277 C87.005976,280.001268 81.4545455,265.739846 81.4545455,250.181818 C81.4545455,214.835594 110.108321,186.181818 145.454545,186.181818 C180.800769,186.181818 209.454545,214.835594 209.454545,250.181818 C209.454545,265.739846 203.903115,280.001268 194.673061,291.093277 C210.186296,294.981742 221.090909,308.930902 221.090909,324.953944 L221.090909,372.363636 C221.090909,391.643395 205.461577,407.272727 186.181818,407.272727 L104.727273,407.272727 C85.4475142,407.272727 69.8181818,391.643395 69.8181818,372.363636 L69.8181818,324.953944 C69.8181818,308.930902 80.7227947,294.981742 96.2360296,291.093277 Z M120.598167,309.175744 L102.010287,313.639221 C96.7790134,314.895398 93.0909091,319.573962 93.0909091,324.953944 L93.0909091,372.363636 C93.0909091,378.790223 98.3006865,384 104.727273,384 L186.181818,384 C192.608404,384 197.818182,378.790223 197.818182,372.363636 L197.818182,324.953944 C197.818182,319.573962 194.130077,314.895398 188.898804,313.639221 L170.310924,309.175744 C162.668847,312.399569 154.269829,314.181818 145.454545,314.181818 C136.639261,314.181818 128.240244,312.399569 120.598167,309.175744 Z M302.545455,244.363636 L302.545455,232.727273 C302.545455,213.447514 318.174787,197.818182 337.454545,197.818182 L360.898762,197.818182 C380.178521,197.818182 395.807853,213.447514 395.807853,232.727273 L395.807853,244.363636 L418.909091,244.363636 C438.188849,244.363636 453.818182,259.992969 453.818182,279.272727 L453.818182,372.363636 C453.818182,391.643395 438.188849,407.272727 418.909091,407.272727 L279.272727,407.272727 C259.992969,407.272727 244.363636,391.643395 244.363636,372.363636 L244.363636,279.272727 C244.363636,259.992969 259.992969,244.363636 279.272727,244.363636 L302.545455,244.363636 Z M325.818182,244.363636 L372.535126,244.363636 L372.535126,232.727273 C372.535126,226.300687 367.325348,221.090909 360.898762,221.090909 L337.454545,221.090909 C331.027959,221.090909 325.818182,226.300687 325.818182,232.727273 L325.818182,244.363636 Z M360.727273,178.228001 L337.454545,178.228001 L337.454545,139.636364 C337.454545,133.209777 332.244768,128 325.818182,128 L174.545455,128 C168.118868,128 162.909091,133.209777 162.909091,139.636364 L162.909091,162.909091 L139.636364,162.909091 L139.636364,139.636364 C139.636364,120.356605 155.265696,104.727273 174.545455,104.727273 L325.818182,104.727273 C345.09794,104.727273 360.727273,120.356605 360.727273,139.636364 L360.727273,178.228001 Z M279.272727,267.636364 C272.846141,267.636364 267.636364,272.846141 267.636364,279.272727 L267.636364,372.363636 C267.636364,378.790223 272.846141,384 279.272727,384 L418.909091,384 C425.335677,384 430.545455,378.790223 430.545455,372.363636 L430.545455,279.272727 C430.545455,272.846141 425.335677,267.636364 418.909091,267.636364 L279.272727,267.636364 Z M145.454545,290.909091 C167.947597,290.909091 186.181818,272.67487 186.181818,250.181818 C186.181818,227.688767 167.947597,209.454545 145.454545,209.454545 C122.961494,209.454545 104.727273,227.688767 104.727273,250.181818 C104.727273,272.67487 122.961494,290.909091 145.454545,290.909091 Z" id="Mask"></path>
        </g>
    </g>
</svg>