<?xml version="1.0" encoding="UTF-8"?>
<svg width="512px" height="512px" viewBox="0 0 512 512" version="1.1" xmlns="http://www.w3.org/2000/svg" xmlns:xlink="http://www.w3.org/1999/xlink">
    <!-- Generator: sketchtool 52.2 (67145) - http://www.bohemiancoding.com/sketch -->
    <title>matches-active</title>
    <desc>Created with sketchtool.</desc>
    <g id="Page-1" stroke="none" stroke-width="1" fill="none" fill-rule="evenodd">
        <g id="matches-active" fill="#000000">
            <path d="M200.512847,293.118971 C212.853725,298.668342 221.090909,311.027853 221.090909,324.953944 L221.090909,372.363636 C221.090909,391.643395 205.461577,407.272727 186.181818,407.272727 L104.727273,407.272727 C85.4475142,407.272727 69.8181818,391.643395 69.8181818,372.363636 L69.8181818,324.953944 C69.8181818,311.027853 78.055366,298.668342 90.3962444,293.118971 C103.174014,309.480624 123.085814,320 145.454545,320 C167.823277,320 187.735077,309.480624 200.512847,293.118971 Z M302.545455,244.363636 L302.545455,232.727273 C302.545455,213.447514 318.174787,197.818182 337.454545,197.818182 L360.898762,197.818182 C380.178521,197.818182 395.807853,213.447514 395.807853,232.727273 L395.807853,244.363636 L418.909091,244.363636 C438.188849,244.363636 453.818182,259.992969 453.818182,279.272727 L453.818182,372.363636 C453.818182,391.643395 438.188849,407.272727 418.909091,407.272727 L279.272727,407.272727 C259.992969,407.272727 244.363636,391.643395 244.363636,372.363636 L244.363636,279.272727 C244.363636,259.992969 259.992969,244.363636 279.272727,244.363636 L302.545455,244.363636 Z M325.818182,244.363636 L372.535126,244.363636 L372.535126,232.727273 C372.535126,226.300687 367.325348,221.090909 360.898762,221.090909 L337.454545,221.090909 C331.027959,221.090909 325.818182,226.300687 325.818182,232.727273 L325.818182,244.363636 Z M360.727273,178.228001 L337.454545,178.228001 L337.454545,139.636364 C337.454545,133.209777 332.244768,128 325.818182,128 L174.545455,128 C168.118868,128 162.909091,133.209777 162.909091,139.636364 L162.909091,162.909091 L139.636364,162.909091 L139.636364,139.636364 C139.636364,120.356605 155.265696,104.727273 174.545455,104.727273 L325.818182,104.727273 C345.09794,104.727273 360.727273,120.356605 360.727273,139.636364 L360.727273,178.228001 Z M145.454545,308.363636 C113.321615,308.363636 87.2727273,282.314749 87.2727273,250.181818 C87.2727273,218.048887 113.321615,192 145.454545,192 C177.587476,192 203.636364,218.048887 203.636364,250.181818 C203.636364,282.314749 177.587476,308.363636 145.454545,308.363636 Z" id="Mask"></path>
        </g>
    </g>
</svg>