<?xml version="1.0" encoding="UTF-8"?>
<svg width="512px" height="512px" viewBox="0 0 512 512" version="1.1" xmlns="http://www.w3.org/2000/svg" xmlns:xlink="http://www.w3.org/1999/xlink">
    <!-- Generator: sketchtool 52.2 (67145) - http://www.bohemiancoding.com/sketch -->
    <title>more</title>
    <desc>Created with sketchtool.</desc>
    <g id="Page-1" stroke="none" stroke-width="1" fill="none" fill-rule="evenodd">
        <g id="more" fill="#000000">
            <path d="M64,256 C64,247.125289 67.1573018,239.530698 73.472,233.216 C79.7866982,226.901302 87.381289,223.744 96.256,223.744 C105.130711,223.744 112.639969,226.901302 118.784,233.216 C124.928031,239.530698 128,247.125289 128,256 C128,264.874711 124.928031,272.383969 118.784,278.528 C112.639969,284.672031 105.130711,287.744 96.256,287.744 C87.381289,287.744 79.7866982,284.672031 73.472,278.528 C67.1573018,272.383969 64,264.874711 64,256 Z M224.256,256 C224.256,247.125289 227.327969,239.530698 233.472,233.216 C239.616031,226.901302 247.125289,223.744 256,223.744 C264.874711,223.744 272.469302,226.901302 278.784,233.216 C285.098698,239.530698 288.256,247.039956 288.256,255.744 C288.256,264.448044 285.098698,271.957302 278.784,278.272 C272.469302,284.586698 264.960044,287.744 256.256,287.744 C247.551956,287.744 240.042698,284.586698 233.728,278.272 C227.413302,271.957302 224.256,264.533376 224.256,256 Z M384,256 C384,247.125289 387.157302,239.530698 393.472,233.216 C399.786698,226.901302 407.381289,223.744 416.256,223.744 C425.130711,223.744 432.639969,226.901302 438.784,233.216 C444.928031,239.530698 448,247.125289 448,256 C448,264.874711 444.928031,272.383969 438.784,278.528 C432.639969,284.672031 425.130711,287.744 416.256,287.744 C407.381289,287.744 399.786698,284.672031 393.472,278.528 C387.157302,272.383969 384,264.874711 384,256 Z" id="Mask"></path>
        </g>
    </g>
</svg>