<?xml version="1.0" encoding="UTF-8"?>
<svg width="512px" height="512px" viewBox="0 0 512 512" version="1.1" xmlns="http://www.w3.org/2000/svg" xmlns:xlink="http://www.w3.org/1999/xlink">
    <!-- Generator: sketchtool 52.2 (67145) - http://www.bohemiancoding.com/sketch -->
    <title>notfound</title>
    <desc>Created with sketchtool.</desc>
    <g id="Page-1" stroke="none" stroke-width="1" fill="none" fill-rule="evenodd">
        <g id="notfound" fill="#000000">
            <path d="M431.696466,80.149645 C449.58296,97.9892475 459.477277,121.810184 459.636364,147.294842 C459.636364,172.775234 449.779142,196.627739 431.845502,214.514362 L342.274689,303.850355 C324.190463,321.887171 300.045826,331.636364 274.900109,331.636364 C249.754392,331.636364 225.609755,321.887171 207.525529,303.850355 C202.339975,298.678396 202.339975,290.303856 207.525529,285.131897 C212.702636,279.968362 221.072825,279.968362 226.249933,285.131897 C253.041111,311.852839 296.610071,311.852839 323.397823,285.135317 L412.897544,195.721582 C425.827499,182.825525 432.947334,165.646433 432.947334,147.294842 C432.947334,128.943251 425.827499,111.76416 412.897544,98.8681026 C399.964646,85.9691094 382.732195,78.8645578 364.321886,78.8645578 C345.911577,78.8645578 328.679126,85.9691094 315.746228,98.8681026 L247.26405,167.170746 C242.086943,172.334281 233.716754,172.334281 228.539647,167.170746 C223.354093,161.998787 223.354093,153.624247 228.539647,148.452288 L297.021824,80.149645 C334.167217,43.1016335 394.551073,43.1016335 431.696466,80.149645 Z M258.573962,353.454713 C263.815355,348.237525 272.284589,348.237525 277.525982,353.454713 C282.782283,358.686739 282.782283,367.163179 277.525982,372.395206 L218.249371,431.398066 C199.959968,449.603005 175.483225,459.636364 149.458655,459.636364 C123.519648,459.636364 99.0991236,449.58747 80.7532839,431.407156 C62.4588025,413.277738 52.3636364,388.898357 52.3636364,362.962879 C52.3636364,336.99165 62.4302964,312.681111 80.7441308,294.451853 L166.91617,208.677774 C204.843509,170.925591 266.494071,170.925591 304.42141,208.677774 C309.677712,213.9098 309.677712,222.38624 304.42141,227.618267 C299.180017,232.835454 290.710784,232.835454 285.469391,227.618267 C258.024838,200.300458 213.388933,200.300458 185.946202,227.616453 L99.7723411,313.468186 C72.3426966,340.771155 72.3426966,385.154603 99.7723411,412.457572 C113.020126,425.644176 130.674262,432.908009 149.534846,432.908009 C168.395431,432.908009 186.049567,425.644176 199.297352,412.457572 L258.573962,353.454713 Z M308.363636,378.181818 C315.147069,378.181818 320,384.290108 320,391.272727 L320,434.909091 C320,441.872726 315.098181,448 308.363636,448 C301.629092,448 296.727273,441.872726 296.727273,434.909091 L296.727273,391.272727 C296.727273,384.309092 301.629092,378.181818 308.363636,378.181818 Z M385.938124,402.103226 C391.111534,407.287013 391.111534,415.669484 385.831417,420.957485 C383.27895,423.387192 379.986891,424.727273 376.528132,424.727273 C372.992236,424.727273 369.668901,423.409148 367.118139,420.85327 L335.516422,389.188171 C330.343011,384.004385 330.343011,375.621914 335.516422,370.438128 C340.695345,365.248817 349.079057,365.247897 354.259117,370.435366 L385.938124,402.103226 Z M388.363636,331.636364 C395.381286,331.636364 401.454545,336.528712 401.454545,343.272727 C401.454545,350.007272 395.327271,354.909091 388.363636,354.909091 L344.727273,354.909091 C337.763638,354.909091 331.636364,350.007272 331.636364,343.272727 C331.636364,336.538183 337.763638,331.636364 344.727273,331.636364 L388.363636,331.636364 Z M180.363636,145.454545 C173.629092,145.454545 168.727273,139.327271 168.727273,132.363636 L168.727273,88.7272727 C168.727273,81.7636378 173.629092,75.6363636 180.363636,75.6363636 C187.098181,75.6363636 192,81.7636378 192,88.7272727 L192,132.363636 C192,139.327271 187.098181,145.454545 180.363636,145.454545 Z M134.394162,153.223676 L102.792445,121.53474 C97.6146397,116.354861 97.6146397,107.974844 102.792445,102.794965 C107.971536,97.6137995 116.352214,97.6137995 121.531305,102.794965 L153.207555,134.483901 C158.38536,139.663779 158.38536,148.043797 153.100769,153.327801 C150.548418,155.753505 147.257665,157.090909 143.800859,157.090909 C140.266859,157.090909 136.94491,155.775444 134.394162,153.223676 Z M100.363636,192 C93.4000015,192 87.2727273,187.098181 87.2727273,180.363636 C87.2727273,173.629092 93.4000015,168.727273 100.363636,168.727273 L144,168.727273 C150.963635,168.727273 157.090909,173.629092 157.090909,180.363636 C157.090909,187.098181 150.963635,192 144,192 L100.363636,192 Z" id="Mask"></path>
        </g>
    </g>
</svg>