<?xml version="1.0" encoding="UTF-8"?>
<svg width="512px" height="512px" viewBox="0 0 512 512" version="1.1" xmlns="http://www.w3.org/2000/svg" xmlns:xlink="http://www.w3.org/1999/xlink">
    <!-- Generator: sketchtool 52.2 (67145) - http://www.bohemiancoding.com/sketch -->
    <title>phone-work</title>
    <desc>Created with sketchtool.</desc>
    <g id="Page-1" stroke="none" stroke-width="1" fill="none" fill-rule="evenodd">
        <g id="phone-work" fill="#000000">
            <path d="M452.560578,280.219718 L438.286318,280.219718 L438.286318,221.426643 C438.455816,220.832761 438.62171,220.23988 438.784,219.648 C445.610701,196.095882 448.00001,174.250767 445.952,154.112 C443.90399,134.997238 437.589386,117.248082 427.008,100.864 C418.815959,88.2346035 411.818696,79.1893606 406.016,73.728 C400.554639,68.9493094 396.288015,66.56 393.216,66.56 C390.826655,66.56 388.437345,67.7546547 386.048,70.144 C370.687923,86.1867469 359.424036,99.6692787 352.256,110.592 C348.15998,117.077366 345.258675,122.879974 343.552,128 C341.845325,132.437356 341.33333,135.850655 342.016,138.24 L342.528,139.264 L346.624,144.384 L365.056,163.84 C377.002726,175.786726 384.34132,183.80798 387.072,187.904 C390.638646,192.808138 392.967852,198.440112 394.059642,204.8 L355.060711,204.8 C351.853185,201.072946 346.480971,195.440971 338.944,187.904 L336.896,185.856 C327.338619,175.957284 320.85335,168.96002 317.44,164.864 C312.661309,159.061304 309.58934,153.770691 308.224,148.992 C303.103974,133.290588 307.882593,114.005448 322.56,91.136 C330.752041,78.5066035 343.551913,63.1467571 360.96,45.056 C370.517381,35.4986189 381.098609,30.72 392.704,30.72 C404.992061,30.72 417.279939,36.1812787 429.568,47.104 C437.760041,54.9547059 446.805284,66.3892582 456.704,81.408 C470.016067,102.229437 478.03732,125.183875 480.768,150.272 C483.49868,175.360125 480.938706,201.727862 473.088,229.376 C468.094449,246.399468 461.252011,263.347299 452.560582,280.219718 Z M179.199999,480.593615 C176.460478,480.709872 173.729812,480.768 171.008,480.768 C138.581171,480.768 109.226798,472.234752 82.944,455.168 C51.5411763,435.370568 34.8160102,415.573432 32.768,395.776 C31.4026598,382.122598 36.1812787,370.005386 47.104,359.424 C62.4640768,344.063923 76.1172736,332.288041 88.064,324.096 C107.178762,311.125268 123.733263,304.64 137.728,304.64 C142.506691,304.64 146.773315,305.32266 150.528,306.688 C155.306691,308.05334 160.597304,311.125309 166.4,315.904 C169.050635,318.072701 173.317277,321.942469 179.2,327.513372 L179.2,376.835552 C176.535083,374.385348 173.463086,371.482833 169.984,368.128 L164.352,362.496 C158.207969,356.351969 152.064031,350.549361 145.92,345.088 C142.50665,342.015985 140.45867,340.48 139.776,340.48 L137.728,339.968 C131.242634,339.968 121.344067,344.575954 108.032,353.792 C96.7679437,361.984041 84.6507315,372.223939 71.68,384.512 C69.2906547,386.901345 68.096,389.290655 68.096,391.68 L68.096,392.192 C68.096,395.264015 70.9973043,399.871969 76.8,406.016 C82.6026957,412.160031 91.1359437,418.645299 102.4,425.472 C122.538767,438.442732 145.407872,444.928 171.008,444.928 C173.673794,444.928 176.404459,444.848702 179.2,444.690106 L179.2,480.593639 Z M255.864653,503.795267 C227.662424,503.795267 204.8,480.932843 204.8,452.730613 L204.8,358.291227 C204.8,330.088998 227.662424,307.226574 255.864653,307.226574 L272.750359,307.226574 L272.750359,281.464653 C272.750359,253.262424 295.612783,230.4 323.815012,230.4 L365.735531,230.4 C393.937761,230.4 416.800185,253.262424 416.800185,281.464653 L416.800185,307.226574 L443.289212,307.226574 C471.491441,307.226574 494.353865,330.088998 494.353865,358.291227 L494.353865,453.019804 C494.353865,481.222033 471.491441,504.084457 443.289212,504.084457 L255.864653,503.795267 Z M382.757082,307.226574 L382.757082,281.464653 C382.757082,272.06391 375.136274,264.443102 365.735531,264.443102 L323.815012,264.443102 C314.414269,264.443102 306.793461,272.06391 306.793461,281.464653 L306.793461,307.226574 L382.757082,307.226574 Z" id="Mask"></path>
        </g>
    </g>
</svg>