<?xml version="1.0" encoding="UTF-8"?>
<svg width="512px" height="512px" viewBox="0 0 512 512" version="1.1" xmlns="http://www.w3.org/2000/svg" xmlns:xlink="http://www.w3.org/1999/xlink">
    <!-- Generator: sketchtool 52.2 (67145) - http://www.bohemiancoding.com/sketch -->
    <title>pin</title>
    <desc>Created with sketchtool.</desc>
    <g id="Page-1" stroke="none" stroke-width="1" fill="none" fill-rule="evenodd">
        <g id="pin" fill="#000000">
            <g id="Group" transform="translate(102.000000, 25.000000)">
                <path d="M47.4,46.6 C78.73349,15.93318 116.39978,0.6 160.4,0.6 C204.40022,0.6 242.06651,15.93318 273.4,46.6 C304.73349,77.26682 320.4,114.26645 320.4,157.6 C320.4,192.26684 307.0668,233.93309 280.4,282.6 C253.7332,331.26691 227.0668,371.26651 200.4,402.6 L160.4,448.6 C155.73331,443.93331 149.900035,437.433375 142.9,429.1 C135.899965,420.766625 123.233425,404.60012 104.9,380.6 C86.566575,356.59988 70.40007,333.26678 56.4,310.6 C42.39993,287.93322 29.566725,262.26681 17.9,233.6 C6.233275,204.93319 0.4,179.60011 0.4,157.6 C0.4,114.26645 16.06651,77.26682 47.4,46.6 Z M119.4,197.6 C130.73339,208.26672 144.39992,213.6 160.4,213.6 C176.40008,213.6 189.899945,208.100055 200.9,197.1 C211.900055,186.099945 217.4,172.93341 217.4,157.6 C217.4,142.26659 211.900055,129.100055 200.9,118.1 C189.899945,107.099945 176.40008,101.6 160.4,101.6 C144.39992,101.6 130.900055,107.099945 119.9,118.1 C108.899945,129.100055 103.4,142.26659 103.4,157.6 C103.4,172.93341 108.73328,186.26661 119.4,197.6 Z" id="ion-android-pin---Ionicons"></path>
            </g>
        </g>
    </g>
</svg>