<?xml version="1.0" encoding="UTF-8"?>
<svg width="512px" height="512px" viewBox="0 0 512 512" version="1.1" xmlns="http://www.w3.org/2000/svg" xmlns:xlink="http://www.w3.org/1999/xlink">
    <!-- Generator: sketchtool 52.2 (67145) - http://www.bohemiancoding.com/sketch -->
    <title>settings</title>
    <desc>Created with sketchtool.</desc>
    <g id="Page-1" stroke="none" stroke-width="1" fill="none" fill-rule="evenodd">
        <g id="settings" fill="#000000">
            <path d="M419.467636,227.234909 C421.205342,236.916412 422.012122,245.72893 421.888,253.672727 C421.763878,261.616525 420.957098,270.304923 419.467636,279.738182 L417.978182,288.674909 L391.540364,297.611636 C389.306171,304.314215 386.451411,311.264934 382.976,318.464 L395.264,343.412364 L390.050909,350.859636 C384.837792,358.306946 379.252393,365.009425 373.294545,370.967273 C369.322647,375.187415 362.620168,380.896934 353.186909,388.096 L346.112,393.309091 L320.791273,380.648727 C313.592206,384.124139 306.641488,386.978898 299.938909,389.213091 L291.002182,416.023273 L282.437818,417.140364 C274.742265,418.629826 265.929747,419.374545 256,419.374545 C246.070253,419.374545 237.381855,418.629826 229.934545,417.140364 L220.997818,416.023273 L212.061091,389.213091 C205.358512,386.978898 198.407794,384.124139 191.208727,380.648727 L166.260364,392.936727 L158.813091,388.096 C150.372806,381.641665 143.670328,375.932146 138.705455,370.967273 C131.754632,363.519963 126.169233,356.817484 121.949091,350.859636 L116.736,343.784727 L129.024,318.464 C125.548589,311.264934 122.693829,304.314215 120.459636,297.611636 L94.0218182,288.674909 L92.5323636,280.110545 C91.0429016,270.429043 90.2981818,261.616525 90.2981818,253.672727 C90.2981818,245.72893 91.0429016,236.916412 92.5323636,227.234909 L94.0218182,218.670545 L120.459636,209.733818 C122.693829,203.031239 125.548589,196.080521 129.024,188.881455 L116.736,163.560727 L121.576727,156.485818 C132.002961,142.087686 144.414958,129.675688 158.813091,119.249455 L165.888,114.036364 L191.208727,126.696727 C196.918332,123.966047 203.86905,121.111288 212.061091,118.132364 L220.997818,91.3221818 L229.562182,90.2050909 C237.505979,88.7156289 246.380557,87.9709091 256.186182,87.9709091 C265.991807,87.9709091 274.742265,88.7156289 282.437818,90.2050909 L291.002182,91.3221818 L299.938909,118.132364 C306.641488,120.366557 313.592206,123.221316 320.791273,126.696727 L345.739636,114.036364 L353.186909,119.249455 C367.336798,129.675688 379.748795,142.087686 390.423273,156.485818 L395.264,163.560727 L382.976,188.881455 C386.451411,196.080521 389.306171,203.031239 391.540364,209.733818 L418.350545,218.670545 L419.467636,227.234909 Z M395.636364,253.300364 C395.884607,249.328465 395.636367,244.363666 394.891636,238.405818 L370.688,230.213818 L366.964364,219.042909 C365.474902,214.078036 362.868382,207.499677 359.144727,199.307636 L353.559273,188.881455 L365.102545,166.167273 C357.406992,157.230501 350.208034,150.031542 343.505455,144.570182 L320.418909,156.113455 L309.992727,150.528 C303.538392,147.052589 297.084153,144.446069 290.629818,142.708364 L279.458909,138.984727 L271.266909,114.781091 C264.316086,114.284604 259.351288,114.036364 256.372364,114.036364 C253.39344,114.036364 248.801001,114.284604 242.594909,114.781091 L240.733091,114.781091 L232.913455,138.984727 L221.370182,142.708364 C216.901796,143.949582 210.447557,146.556101 202.007273,150.528 L191.581091,156.113455 L168.866909,144.942545 C160.923112,150.900393 153.724153,157.975232 147.269818,166.167273 L158.440727,189.253818 L152.855273,199.68 C148.883374,208.120285 146.276855,214.574523 145.035636,219.042909 L141.684364,230.586182 L117.480727,238.405818 C116.735996,243.618935 116.363636,248.707854 116.363636,253.672727 C116.363636,258.637601 116.735996,263.726519 117.480727,268.939636 L141.684364,277.131636 L145.035636,288.302545 C146.525098,293.763906 149.255738,300.218145 153.227636,307.665455 L158.440727,318.091636 L147.269818,340.805818 C150.248742,344.777717 153.599981,348.625436 157.323636,352.349091 C161.047291,356.072746 164.89501,359.423985 168.866909,362.402909 L191.581091,351.232 L202.379636,356.817455 C208.337484,359.796379 214.667603,362.402898 221.370182,364.637091 L232.913455,367.988364 L240.733091,392.192 C246.442695,392.936731 251.655734,393.309091 256.372364,393.309091 C261.088993,393.309091 266.053792,392.936731 271.266909,392.192 L275.735273,379.531636 L279.458909,367.988364 L290.629818,364.637091 C298.573615,361.906411 305.027854,359.175771 309.992727,356.445091 L320.791273,351.232 L343.505455,362.402909 C347.725597,358.927498 351.449196,355.576259 354.676364,352.349091 C358.400019,349.121923 361.875378,345.274204 365.102545,340.805818 L353.559273,318.091636 L359.144727,307.665455 C362.620139,301.211119 365.226658,294.756881 366.964364,288.302545 L370.688,276.759273 L394.891636,268.939636 L394.891636,267.077818 C395.388124,260.871727 395.636364,256.403408 395.636364,253.672727 L395.636364,253.300364 Z M256,190.370909 C267.419209,190.370909 277.969406,193.225668 287.650909,198.935273 C297.332412,204.644877 305.02785,212.340315 310.737455,222.021818 C316.447059,231.703321 319.301818,242.253519 319.301818,253.672727 C319.301818,265.091936 316.447059,275.642133 310.737455,285.323636 C305.02785,295.005139 297.332412,302.700578 287.650909,308.410182 C277.969406,314.119786 267.419209,316.974545 256,316.974545 C244.580791,316.974545 234.030594,314.119786 224.349091,308.410182 C214.667588,302.700578 206.97215,295.005139 201.262545,285.323636 C195.552941,275.642133 192.698182,265.091936 192.698182,253.672727 C192.698182,242.253519 195.552941,231.703321 201.262545,222.021818 C206.97215,212.340315 214.667588,204.644877 224.349091,198.935273 C234.030594,193.225668 244.580791,190.370909 256,190.370909 Z M282.437818,280.110545 C289.636884,272.911479 293.236364,264.098961 293.236364,253.672727 C293.236364,243.246493 289.636884,234.433975 282.437818,227.234909 C278.962407,223.759498 274.928508,221.090918 270.336,219.229091 C265.743492,217.367263 260.964873,216.436364 256,216.436364 C251.035127,216.436364 246.256508,217.367263 241.664,219.229091 C237.071492,221.090918 233.161713,223.759498 229.934545,227.234909 C222.487235,234.682219 218.763636,243.494737 218.763636,253.672727 C218.763636,263.850718 222.487235,272.663235 229.934545,280.110545 C233.161713,283.585957 237.071492,286.254536 241.664,288.116364 C246.256508,289.978191 251.035127,290.909091 256,290.909091 C265.929747,290.909091 274.742265,287.309612 282.437818,280.110545 Z" id="Mask"></path>
        </g>
    </g>
</svg>