<?xml version="1.0" encoding="UTF-8"?>
<svg width="512px" height="512px" viewBox="0 0 512 512" version="1.1" xmlns="http://www.w3.org/2000/svg" xmlns:xlink="http://www.w3.org/1999/xlink">
    <!-- Generator: sketchtool 52.2 (67145) - http://www.bohemiancoding.com/sketch -->
    <title>settings-active</title>
    <desc>Created with sketchtool.</desc>
    <g id="Page-1" stroke="none" stroke-width="1" fill="none" fill-rule="evenodd">
        <g id="settings-active" fill="#000000">
            <path d="M419.467636,227.234909 C421.205342,236.916412 422.012122,245.72893 421.888,253.672727 C421.763878,261.616525 420.957098,270.304923 419.467636,279.738182 L417.978182,288.674909 L391.540364,297.611636 C389.306171,304.314215 386.451411,311.264934 382.976,318.464 L395.264,343.412364 L390.050909,350.859636 C384.837792,358.306946 379.252393,365.009425 373.294545,370.967273 C369.322647,375.187415 362.620168,380.896934 353.186909,388.096 L346.112,393.309091 L320.791273,380.648727 C313.592206,384.124139 306.641488,386.978898 299.938909,389.213091 L291.002182,416.023273 L282.437818,417.140364 C274.742265,418.629826 265.929747,419.374545 256,419.374545 C246.070253,419.374545 237.381855,418.629826 229.934545,417.140364 L220.997818,416.023273 L212.061091,389.213091 C205.358512,386.978898 198.407794,384.124139 191.208727,380.648727 L166.260364,392.936727 L158.813091,388.096 C150.372806,381.641665 143.670328,375.932146 138.705455,370.967273 C131.754632,363.519963 126.169233,356.817484 121.949091,350.859636 L116.736,343.784727 L129.024,318.464 C125.548589,311.264934 122.693829,304.314215 120.459636,297.611636 L94.0218182,288.674909 L92.5323636,280.110545 C91.0429016,270.429043 90.2981818,261.616525 90.2981818,253.672727 C90.2981818,245.72893 91.0429016,236.916412 92.5323636,227.234909 L94.0218182,218.670545 L120.459636,209.733818 C122.693829,203.031239 125.548589,196.080521 129.024,188.881455 L116.736,163.560727 L121.576727,156.485818 C132.002961,142.087686 144.414958,129.675688 158.813091,119.249455 L165.888,114.036364 L191.208727,126.696727 C196.918332,123.966047 203.86905,121.111288 212.061091,118.132364 L220.997818,91.3221818 L229.562182,90.2050909 C237.505979,88.7156289 246.380557,87.9709091 256.186182,87.9709091 C265.991807,87.9709091 274.742265,88.7156289 282.437818,90.2050909 L291.002182,91.3221818 L299.938909,118.132364 C306.641488,120.366557 313.592206,123.221316 320.791273,126.696727 L345.739636,114.036364 L353.186909,119.249455 C367.336798,129.675688 379.748795,142.087686 390.423273,156.485818 L395.264,163.560727 L382.976,188.881455 C386.451411,196.080521 389.306171,203.031239 391.540364,209.733818 L418.350545,218.670545 L419.467636,227.234909 Z M256,190.370909 C244.580791,190.370909 234.030594,193.225668 224.349091,198.935273 C214.667588,204.644877 206.97215,212.340315 201.262545,222.021818 C195.552941,231.703321 192.698182,242.253519 192.698182,253.672727 C192.698182,265.091936 195.552941,275.642133 201.262545,285.323636 C206.97215,295.005139 214.667588,302.700578 224.349091,308.410182 C234.030594,314.119786 244.580791,316.974545 256,316.974545 C267.419209,316.974545 277.969406,314.119786 287.650909,308.410182 C297.332412,302.700578 305.02785,295.005139 310.737455,285.323636 C316.447059,275.642133 319.301818,265.091936 319.301818,253.672727 C319.301818,242.253519 316.447059,231.703321 310.737455,222.021818 C305.02785,212.340315 297.332412,204.644877 287.650909,198.935273 C277.969406,193.225668 267.419209,190.370909 256,190.370909 Z" id="Mask"></path>
        </g>
    </g>
</svg>