<?xml version="1.0" encoding="UTF-8"?>
<svg width="512px" height="512px" viewBox="0 0 512 512" version="1.1" xmlns="http://www.w3.org/2000/svg" xmlns:xlink="http://www.w3.org/1999/xlink">
    <!-- Generator: sketchtool 52.2 (67145) - http://www.bohemiancoding.com/sketch -->
    <title>talentpools-active</title>
    <desc>Created with sketchtool.</desc>
    <g id="Page-1" stroke="none" stroke-width="1" fill="none" fill-rule="evenodd">
        <g id="talentpools-active" fill="#000000">
            <path d="M463.003888,235.717136 C478.164688,239.849186 488.727273,253.629531 488.727273,269.396086 L488.727273,314.181818 C488.727273,333.461577 473.09794,349.090909 453.818182,349.090909 L384,349.090909 C364.720241,349.090909 349.090909,333.461577 349.090909,314.181818 L349.090909,269.396086 C349.090909,253.629531 359.653494,239.849186 374.814294,235.717136 C386.292999,246.337282 401.81875,252.855037 418.909091,252.855037 C435.999431,252.855037 451.525182,246.337282 463.003888,235.717136 Z M300.094797,235.717136 C315.255597,239.849186 325.818182,253.629531 325.818182,269.396086 L325.818182,314.181818 C325.818182,333.461577 310.188849,349.090909 290.909091,349.090909 L221.090909,349.090909 C201.811151,349.090909 186.181818,333.461577 186.181818,314.181818 L186.181818,269.396086 C186.181818,253.629531 196.744403,239.849186 211.905203,235.717136 C223.383908,246.337282 238.90966,252.855037 256,252.855037 C273.09034,252.855037 288.616092,246.337282 300.094797,235.717136 Z M137.185706,235.717136 C152.346506,239.849186 162.909091,253.629531 162.909091,269.396086 L162.909091,314.181818 C162.909091,333.461577 147.279759,349.090909 128,349.090909 L58.1818182,349.090909 C38.9020596,349.090909 23.2727273,333.461577 23.2727273,314.181818 L23.2727273,269.396086 C23.2727273,253.629531 33.8353122,239.849186 48.9961125,235.717136 C60.4748175,246.337282 76.0005686,252.855037 93.0909091,252.855037 C110.18125,252.855037 125.707001,246.337282 137.185706,235.717136 Z M442.181818,372.363636 L442.181818,384 C442.181818,403.279759 426.552486,418.909091 407.272727,418.909091 L116.363636,418.909091 C97.0838778,418.909091 81.4545455,403.279759 81.4545455,384 L81.4545455,372.363636 L104.727273,372.363636 L104.727273,384 C104.727273,390.426586 109.93705,395.636364 116.363636,395.636364 L407.272727,395.636364 C413.699313,395.636364 418.909091,390.426586 418.909091,384 L418.909091,372.363636 L442.181818,372.363636 Z M93.0909091,244.363636 C60.9579782,244.363636 34.9090909,218.314749 34.9090909,186.181818 C34.9090909,154.048887 60.9579782,128 93.0909091,128 C125.22384,128 151.272727,154.048887 151.272727,186.181818 C151.272727,218.314749 125.22384,244.363636 93.0909091,244.363636 Z M256,244.363636 C223.867069,244.363636 197.818182,218.314749 197.818182,186.181818 C197.818182,154.048887 223.867069,128 256,128 C288.132931,128 314.181818,154.048887 314.181818,186.181818 C314.181818,218.314749 288.132931,244.363636 256,244.363636 Z M418.909091,244.363636 C386.77616,244.363636 360.727273,218.314749 360.727273,186.181818 C360.727273,154.048887 386.77616,128 418.909091,128 C451.042022,128 477.090909,154.048887 477.090909,186.181818 C477.090909,218.314749 451.042022,244.363636 418.909091,244.363636 Z" id="Mask"></path>
        </g>
    </g>
</svg>