<?xml version="1.0" encoding="UTF-8"?>
<svg width="512px" height="512px" viewBox="0 0 512 512" version="1.1" xmlns="http://www.w3.org/2000/svg" xmlns:xlink="http://www.w3.org/1999/xlink">
    <!-- Generator: sketchtool 52.2 (67145) - http://www.bohemiancoding.com/sketch -->
    <title>talentpools</title>
    <desc>Created with sketchtool.</desc>
    <g id="Page-1" stroke="none" stroke-width="1" fill="none" fill-rule="evenodd">
        <g id="talentpools" fill="#000000">
            <path d="M381.570867,230.804039 C368.829586,220.131258 360.727273,204.102736 360.727273,186.181818 C360.727273,154.048887 386.77616,128 418.909091,128 C451.042022,128 477.090909,154.048887 477.090909,186.181818 C477.090909,204.102736 468.988596,220.131258 456.247315,230.804039 L462.606891,232.458413 C477.989773,236.460101 488.727273,250.348213 488.727273,266.243073 L488.727273,314.181818 C488.727273,333.461577 473.09794,349.090909 453.818182,349.090909 L384,349.090909 C364.720241,349.090909 349.090909,333.461577 349.090909,314.181818 L349.090909,266.243073 C349.090909,250.348213 359.828409,236.460101 375.211291,232.458413 L381.570867,230.804039 Z M218.661776,230.804039 C205.920495,220.131258 197.818182,204.102736 197.818182,186.181818 C197.818182,154.048887 223.867069,128 256,128 C288.132931,128 314.181818,154.048887 314.181818,186.181818 C314.181818,204.102736 306.079505,220.131258 293.338224,230.804039 L299.6978,232.458413 C315.080682,236.460101 325.818182,250.348213 325.818182,266.243073 L325.818182,314.181818 C325.818182,333.461577 310.188849,349.090909 290.909091,349.090909 L221.090909,349.090909 C201.811151,349.090909 186.181818,333.461577 186.181818,314.181818 L186.181818,266.243073 C186.181818,250.348213 196.919318,236.460101 212.3022,232.458413 L218.661776,230.804039 Z M55.7526855,230.804039 C43.0114039,220.131258 34.9090909,204.102736 34.9090909,186.181818 C34.9090909,154.048887 60.9579782,128 93.0909091,128 C125.22384,128 151.272727,154.048887 151.272727,186.181818 C151.272727,204.102736 143.170414,220.131258 130.429133,230.804039 L136.788709,232.458413 C152.171591,236.460101 162.909091,250.348213 162.909091,266.243073 L162.909091,314.181818 C162.909091,333.461577 147.279759,349.090909 128,349.090909 L58.1818182,349.090909 C38.9020596,349.090909 23.2727273,333.461577 23.2727273,314.181818 L23.2727273,266.243073 C23.2727273,250.348213 34.0102275,236.460101 49.3931092,232.458413 L55.7526855,230.804039 Z M442.181818,372.363636 L442.181818,384 C442.181818,403.279759 426.552486,418.909091 407.272727,418.909091 L116.363636,418.909091 C97.0838778,418.909091 81.4545455,403.279759 81.4545455,384 L81.4545455,372.363636 L104.727273,372.363636 L104.727273,384 C104.727273,390.426586 109.93705,395.636364 116.363636,395.636364 L407.272727,395.636364 C413.699313,395.636364 418.909091,390.426586 418.909091,384 L418.909091,372.363636 L442.181818,372.363636 Z M93.0909091,221.090909 C112.370668,221.090909 128,205.461577 128,186.181818 C128,166.90206 112.370668,151.272727 93.0909091,151.272727 C73.8111506,151.272727 58.1818182,166.90206 58.1818182,186.181818 C58.1818182,205.461577 73.8111506,221.090909 93.0909091,221.090909 Z M256,221.090909 C275.279759,221.090909 290.909091,205.461577 290.909091,186.181818 C290.909091,166.90206 275.279759,151.272727 256,151.272727 C236.720241,151.272727 221.090909,166.90206 221.090909,186.181818 C221.090909,205.461577 236.720241,221.090909 256,221.090909 Z M55.2522485,254.981519 C50.1246213,256.315415 46.5454545,260.944786 46.5454545,266.243073 L46.5454545,314.181818 C46.5454545,320.608404 51.755232,325.818182 58.1818182,325.818182 L128,325.818182 C134.426586,325.818182 139.636364,320.608404 139.636364,314.181818 L139.636364,266.243073 C139.636364,260.944786 136.057197,256.315415 130.92957,254.981519 L96.0204788,245.900302 C94.0994013,245.400555 92.0824169,245.400555 90.1613394,245.900302 L55.2522485,254.981519 Z M218.161339,254.981519 C213.033712,256.315415 209.454545,260.944786 209.454545,266.243073 L209.454545,314.181818 C209.454545,320.608404 214.664323,325.818182 221.090909,325.818182 L290.909091,325.818182 C297.335677,325.818182 302.545455,320.608404 302.545455,314.181818 L302.545455,266.243073 C302.545455,260.944786 298.966288,256.315415 293.838661,254.981519 L258.92957,245.900302 C257.008492,245.400555 254.991508,245.400555 253.07043,245.900302 L218.161339,254.981519 Z M381.07043,254.981519 C375.942803,256.315415 372.363636,260.944786 372.363636,266.243073 L372.363636,314.181818 C372.363636,320.608404 377.573414,325.818182 384,325.818182 L453.818182,325.818182 C460.244768,325.818182 465.454545,320.608404 465.454545,314.181818 L465.454545,266.243073 C465.454545,260.944786 461.875379,256.315415 456.747751,254.981519 L421.838661,245.900302 C419.917583,245.400555 417.900599,245.400555 415.979521,245.900302 L381.07043,254.981519 Z M418.909091,221.090909 C438.188849,221.090909 453.818182,205.461577 453.818182,186.181818 C453.818182,166.90206 438.188849,151.272727 418.909091,151.272727 C399.629332,151.272727 384,166.90206 384,186.181818 C384,205.461577 399.629332,221.090909 418.909091,221.090909 Z" id="Mask"></path>
        </g>
    </g>
</svg>