<?xml version="1.0" encoding="UTF-8"?>
<svg width="512px" height="512px" viewBox="0 0 512 512" version="1.1" xmlns="http://www.w3.org/2000/svg" xmlns:xlink="http://www.w3.org/1999/xlink">
    <!-- Generator: sketchtool 52.2 (67145) - http://www.bohemiancoding.com/sketch -->
    <title>wifi-circle</title>
    <desc>Created with sketchtool.</desc>
    <g id="Page-1" stroke="none" stroke-width="1" fill="none" fill-rule="evenodd">
        <g id="wifi-circle" fill="#000000">
            <path d="M256,512 C114.615104,512 0,397.384896 0,256 C0,114.615104 114.615104,0 256,0 C397.384896,0 512,114.615104 512,256 C512,397.384896 397.384896,512 256,512 Z M419.086716,196.78652 C396.895233,174.595037 371.37541,157.705105 342.526481,146.11622 C314.663841,134.773906 285.692061,129.102834 255.610272,129.102834 C225.528483,129.102834 196.556703,134.773906 168.694063,146.11622 C139.845134,157.705105 114.325311,174.595037 92.1338275,196.78652 C89.6681071,199.252241 88.4352654,202.272703 88.4352654,205.847997 C88.4352654,209.423292 89.7297492,212.505396 92.3187556,215.094403 C94.907762,217.683409 97.9898663,218.977893 101.565161,218.977893 C105.140455,218.977893 108.160918,217.745051 110.626638,215.279331 C130.352401,195.553568 152.913404,180.512899 178.310324,170.156873 C202.967528,160.04742 228.73392,154.992769 255.610272,154.992769 C282.486624,154.992769 308.253016,160.04742 332.91022,170.156873 C358.30714,180.512899 380.868143,195.553568 400.593906,215.279331 C403.306198,217.745051 406.449945,218.977893 410.025239,218.977893 C413.600534,218.977893 416.682638,217.683409 419.271644,215.094403 C421.860651,212.505396 423.155135,209.423292 423.155135,205.847997 C423.155135,202.272703 421.799009,199.252241 419.086716,196.78652 Z M141.324703,252.634808 C138.858983,255.100528 137.626141,258.12099 137.626141,261.696285 C137.626141,265.27158 138.858983,268.353684 141.324703,270.94269 C143.790424,273.531697 146.810886,274.82618 150.38618,274.82618 C153.961475,274.82618 156.981937,273.593339 159.447658,271.127618 C176.954272,253.621004 197.542729,241.785723 221.213644,235.621422 C244.144844,229.703693 267.0757,229.703693 290.006899,235.621422 C313.677815,241.785723 334.266271,253.621004 351.772886,271.127618 C354.238607,273.593339 357.259069,274.82618 360.834363,274.82618 C364.409658,274.82618 367.491762,273.531697 370.080769,270.94269 C372.669775,268.353684 373.964259,265.27158 373.964259,261.696285 C373.964259,258.12099 372.608133,255.100528 369.89584,252.634808 C349.183789,231.922757 324.773524,217.868361 296.664311,210.4712 C269.294815,203.320611 241.925729,203.320611 214.556233,210.4712 C186.44702,217.868361 162.036755,231.922757 141.324703,252.634808 Z M321.074821,311.811801 L321.444677,311.811801 C309.609219,299.976343 295.73975,292.024514 279.835854,287.956076 C263.931957,283.887637 248.028299,283.887637 232.124403,287.956076 C216.220506,292.024514 202.351037,299.976343 190.515579,311.811801 C188.049859,314.277522 186.817017,317.297984 186.817017,320.873278 C186.817017,324.448573 188.111501,327.530677 190.700507,330.119684 C193.289514,332.70869 196.371618,334.003174 199.946912,334.003174 C203.522207,334.003174 206.542669,332.770332 209.00839,330.304612 C217.391839,321.921162 227.316215,316.188449 238.781814,313.106298 C250.247414,310.024148 261.712842,310.024148 273.178442,313.106298 C284.644042,316.188449 294.568417,321.921162 302.951867,330.304612 L304.061435,331.41418 C306.773728,333.879901 309.855832,335.112742 313.307841,335.112742 C316.759849,335.112742 319.780311,333.818259 322.369318,331.229252 C324.958324,328.640246 326.252808,325.558142 326.252808,321.982847 C326.252808,318.407552 324.896682,315.38709 322.18439,312.92137 L321.074821,311.811801 Z M236.377749,385.413187 C236.377749,390.837772 238.288654,395.460928 242.11052,399.282795 C245.932387,403.104661 250.555543,405.015566 255.980128,405.015566 C261.404713,405.015566 266.027869,403.104661 269.849736,399.282795 C273.671603,395.460928 275.582507,390.837772 275.582507,385.413187 C275.582507,379.988602 273.671603,375.365446 269.849736,371.543579 C266.027869,367.721712 261.404713,365.810808 255.980128,365.810808 C250.555543,365.810808 245.932387,367.721712 242.11052,371.543579 C238.288654,375.365446 236.377749,379.988602 236.377749,385.413187 Z" id="Mask"></path>
        </g>
    </g>
</svg>